<svg width="102" height="102" viewBox="0 0 102 102" fill="none" xmlns="http://www.w3.org/2000/svg">
<rect width="101.617" height="101.617" rx="50.8086" fill="#F6FAFF"/>
<path d="M69.375 46.1C67.675 37.475 60.1 31 51 31C43.775 31 37.5 35.1 34.375 41.1C26.85 41.9 21 48.275 21 56C21 64.275 27.725 71 36 71H68.5C75.4 71 81 65.4 81 58.5C81 51.9 75.875 46.55 69.375 46.1ZM68.5 66H36C30.475 66 26 61.525 26 56C26 50.875 29.825 46.6 34.9 46.075L37.575 45.8L38.825 43.425C41.2 38.85 45.85 36 51 36C57.55 36 63.2 40.65 64.475 47.075L65.225 50.825L69.05 51.1C72.95 51.35 76 54.625 76 58.5C76 62.625 72.625 66 68.5 66Z" fill="white"/>
<path d="M69.375 46.1C67.675 37.475 60.1 31 51 31C43.775 31 37.5 35.1 34.375 41.1C26.85 41.9 21 48.275 21 56C21 64.275 27.725 71 36 71H68.5C75.4 71 81 65.4 81 58.5C81 51.9 75.875 46.55 69.375 46.1ZM68.5 66H36C30.475 66 26 61.525 26 56C26 50.875 29.825 46.6 34.9 46.075L37.575 45.8L38.825 43.425C41.2 38.85 45.85 36 51 36C57.55 36 63.2 40.65 64.475 47.075L65.225 50.825L69.05 51.1C72.95 51.35 76 54.625 76 58.5C76 62.625 72.625 66 68.5 66Z" fill="url(#paint0_linear_2971_63972)"/>
<path d="M69.375 46.1C67.675 37.475 60.1 31 51 31C43.775 31 37.5 35.1 34.375 41.1C26.85 41.9 21 48.275 21 56C21 64.275 27.725 71 36 71H68.5C75.4 71 81 65.4 81 58.5C81 51.9 75.875 46.55 69.375 46.1ZM68.5 66H36C30.475 66 26 61.525 26 56C26 50.875 29.825 46.6 34.9 46.075L37.575 45.8L38.825 43.425C41.2 38.85 45.85 36 51 36C57.55 36 63.2 40.65 64.475 47.075L65.225 50.825L69.05 51.1C72.95 51.35 76 54.625 76 58.5C76 62.625 72.625 66 68.5 66Z" fill="url(#paint1_linear_2971_63972)"/>
<path d="M69.375 46.1C67.675 37.475 60.1 31 51 31C43.775 31 37.5 35.1 34.375 41.1C26.85 41.9 21 48.275 21 56C21 64.275 27.725 71 36 71H68.5C75.4 71 81 65.4 81 58.5C81 51.9 75.875 46.55 69.375 46.1ZM68.5 66H36C30.475 66 26 61.525 26 56C26 50.875 29.825 46.6 34.9 46.075L37.575 45.8L38.825 43.425C41.2 38.85 45.85 36 51 36C57.55 36 63.2 40.65 64.475 47.075L65.225 50.825L69.05 51.1C72.95 51.35 76 54.625 76 58.5C76 62.625 72.625 66 68.5 66Z" fill="url(#paint2_linear_2971_63972)"/>
<path d="M41 53.5H47.375V61H54.625V53.5H61L51 43.5L41 53.5Z" fill="#CFDDEE"/>
<defs>
<linearGradient id="paint0_linear_2971_63972" x1="81" y1="54.3333" x2="21" y2="54.3333" gradientUnits="userSpaceOnUse">
<stop offset="0.12998" stop-color="#A033FF"/>
<stop offset="0.610381" stop-color="#0094FF"/>
<stop offset="1" stop-color="#4FB500"/>
</linearGradient>
<linearGradient id="paint1_linear_2971_63972" x1="48.5" y1="43.5" x2="39.125" y2="71.625" gradientUnits="userSpaceOnUse">
<stop stop-color="#FFD600" stop-opacity="0"/>
<stop offset="0.563347" stop-color="#FFC700"/>
</linearGradient>
<linearGradient id="paint2_linear_2971_63972" x1="53.5" y1="54.3333" x2="66.2959" y2="74.6563" gradientUnits="userSpaceOnUse">
<stop offset="0.0297327" stop-color="#FF3B30" stop-opacity="0"/>
<stop offset="0.842824" stop-color="#E73B2D"/>
</linearGradient>
</defs>
</svg>
