<svg xmlns="http://www.w3.org/2000/svg" viewBox="0 0 64 80"><defs><style>.cls-1{fill:#ffdec1;}.cls-2{fill:#ff9300;}.cls-3{fill:none;}.cls-4{fill:#fff;}.cls-12,.cls-5{fill:#2bd1d4;}.cls-6{fill:#bbd9fd;}.cls-7{fill:#fd9e2a;}.cls-8{fill:#b7f6f7;}.cls-9{fill:#ff8e8e;}.cls-10{fill:#f52d2d;}.cls-11{fill:#3281ee;}.cls-12{fill-rule:evenodd;}.cls-13{fill:#288afc;}.cls-14{fill:#fedba7;}</style></defs><title>protect_data_point</title><g id="Calque_2" data-name="Calque 2"><path class="cls-1" d="M63.54,8V8a5.28,5.28,0,0,1-.26-1.36.31.31,0,0,0-.55-.21,3.06,3.06,0,0,0-.47.33,1.87,1.87,0,0,1-.08-.66.31.31,0,0,0-.55-.21,4,4,0,0,0-.77.59,3,3,0,0,1-.17-1,.31.31,0,0,0-.55-.22,4.69,4.69,0,0,0-.75.58,2.83,2.83,0,0,1-.16-1,.31.31,0,0,0-.55-.22,4.69,4.69,0,0,0-.75.58,3.44,3.44,0,0,1-.16-1,.31.31,0,0,0-.55-.22,5.82,5.82,0,0,0-.79.62,3.26,3.26,0,0,1-.17-1,.31.31,0,0,0-.55-.21A3.74,3.74,0,0,0,55,4a3,3,0,0,1-.16-.94.31.31,0,0,0-.55-.21,5.42,5.42,0,0,0-.77.59,3,3,0,0,1-.16-1,.31.31,0,0,0-.55-.21,4.63,4.63,0,0,0-.75.57,2.83,2.83,0,0,1-.16-1,.31.31,0,0,0-.55-.21,4.63,4.63,0,0,0-.75.57,2.83,2.83,0,0,1-.16-.95.31.31,0,0,0-.55-.21,4.63,4.63,0,0,0-.79.61,3.52,3.52,0,0,1-.18-1,.31.31,0,0,0-.54-.22,7.82,7.82,0,0,0-1,.79l-.09.07,0,0-.07.07,0,.05c-.25,1-.55,2-.88,3-.48,1.63-1,3.23-1.65,4.8q-1.08,3.21-2.44,6.32c-.72,1.63-1.48,3.35-2.32,5-.35.7-.75,1-.68,1.39a5.38,5.38,0,0,1,.13,1.38.32.32,0,0,0,.53.27,3.79,3.79,0,0,0,.69-.43l.14.07a2.52,2.52,0,0,1,0,.82.31.31,0,0,0,.52.27,4.13,4.13,0,0,0,.72-.45l.13.07a2.75,2.75,0,0,1,.05.86.31.31,0,0,0,.52.26,3.87,3.87,0,0,0,.73-.45l.09,0a2.83,2.83,0,0,1,.05.87.32.32,0,0,0,.53.27,4.78,4.78,0,0,0,.74-.46l.07,0a2.9,2.9,0,0,1,.06.88.31.31,0,0,0,.52.27,4,4,0,0,0,.74-.46l.13.06a3,3,0,0,1,.06.89.31.31,0,0,0,.52.26,4,4,0,0,0,.74-.46l.06,0a3,3,0,0,1,.06.89.31.31,0,0,0,.52.26,4.44,4.44,0,0,0,.75-.46l.09.05a3,3,0,0,1,.06.89.31.31,0,0,0,.52.26,4.07,4.07,0,0,0,.75-.46l.07,0a2.73,2.73,0,0,1,.05.9.31.31,0,0,0,.53.26,4.2,4.2,0,0,0,.76-.47l0,0a3.17,3.17,0,0,1,.06.92.31.31,0,0,0,.52.26,4,4,0,0,0,.79-.49l.07,0a3,3,0,0,1,.07.94.31.31,0,0,0,.52.27,11.64,11.64,0,0,0,1.2-.77.34.34,0,0,0,.12-.12h0c.3-.6,1.37-3.08,1.57-3.63q3.06-8.22,6.1-16.44A.24.24,0,0,0,63,9.93a13.62,13.62,0,0,0,.6-1.73A.66.66,0,0,0,63.54,8Z"/><path class="cls-2" d="M48.39,7.1c3.29,1.45,3.65,1.58,7,3A.6.6,0,0,0,55.83,9c-3.3-1.44-3.66-1.56-7-3A.6.6,0,0,0,48.39,7.1Z"/><path class="cls-2" d="M46.67,11.54c3.27,1.51,3.62,1.64,6.9,3.14a.6.6,0,0,0,.5-1.09c-3.27-1.49-3.63-1.63-6.9-3.14A.6.6,0,0,0,46.67,11.54Z"/><path class="cls-2" d="M45,16c3.24,1.57,3.59,1.71,6.85,3.26a.6.6,0,0,0,.52-1.08c-3.26-1.55-3.61-1.69-6.85-3.26A.6.6,0,0,0,45,16Z"/><path class="cls-2" d="M43.23,20.42c3.21,1.63,3.56,1.77,6.79,3.38a.6.6,0,0,0,.54-1.07C47.33,21.12,47,21,43.77,19.35A.6.6,0,0,0,43.23,20.42Z"/><polyline class="cls-3" points="52.9 24.05 55.79 25.48 58.04 10.69"/><path class="cls-2" d="M58,11.21l1,.45a.6.6,0,0,0,.48-1.1l-1-.45A.6.6,0,0,0,58,11.21Z"/><path class="cls-2" d="M56.31,15.83l1,.47a.6.6,0,0,0,.5-1.09l-1-.47A.6.6,0,0,0,56.31,15.83Z"/><path class="cls-2" d="M54.64,20.45l1,.49a.6.6,0,0,0,.51-1.09c-.45-.21-.5-.23-1-.48A.6.6,0,0,0,54.64,20.45Z"/><path class="cls-2" d="M53,25.08l1,.49a.6.6,0,0,0,.53-1.07l-1-.5A.6.6,0,0,0,53,25.08Z"/><path class="cls-4" d="M43.77,20.28c-5.89-.65-11.94-1.34-17.28-4.06A101.5,101.5,0,0,0,30,4,36.34,36.34,0,0,0,46.28,7.19,95.37,95.37,0,0,1,43.77,20.28Z"/><path class="cls-5" d="M42,20.65a27.63,27.63,0,0,1-5.53-5.38c-.79-.93-1.57-1.89-2.44-2.75a1.29,1.29,0,0,0-1.42-.37,18.44,18.44,0,0,0-2,.87q-2.2,1-4.35,2.14a.07.07,0,0,0-.12,0c-.13.28-.27.55-.4.83a1.09,1.09,0,0,0-.17.58c0,.4.54.55.85.67a24.65,24.65,0,0,0,3.52.82q3.78.81,7.55,1.68l4.29,1a.06.06,0,0,0,.08,0l0,0C42,20.81,42.07,20.7,42,20.65Z"/><path class="cls-5" d="M45.35,14.84a1.42,1.42,0,0,0-.53-.61,17.34,17.34,0,0,0-1.69-1.15l-.88-.51a1.48,1.48,0,0,0-.81-.27,2.93,2.93,0,0,0-.85.28q-.56.24-1.11.51c-1.47.72-2.91,1.54-4.33,2.37a22.34,22.34,0,0,0-3.85,2.79.07.07,0,0,0,0,.11c-.22.2-.55.15-.79.32a.77.77,0,0,0-.26.51,2.81,2.81,0,0,0,.28,1.73c.28.51.84.58,1.36.69.73.16,1.47.28,2.22.37,1.49.19,3,.26,4.5.36.76,0,1.51.09,2.26.17a11.14,11.14,0,0,0,2.08.15,4.17,4.17,0,0,0,1-.26,1.6,1.6,0,0,0,.67-.38,1.72,1.72,0,0,0,.28-.7c.1-.39.19-.78.26-1.18a13.83,13.83,0,0,0,.2-2.13c0-.81-.12-1.62,0-2.42A1.73,1.73,0,0,0,45.35,14.84Z"/><path class="cls-6" d="M46.85,6.11a.47.47,0,0,0-.17,0A35.2,35.2,0,0,1,30,2.87a.51.51,0,0,0-.36,0,.52.52,0,0,0-.66.4,99.17,99.17,0,0,1-4.59,15.44,8.37,8.37,0,0,0-.46,1.5.72.72,0,0,0,.3.3A15.56,15.56,0,0,0,28,22.26a51.3,51.3,0,0,0,5.19,1.49A50.83,50.83,0,0,0,42.31,25l1.28,0H44a.6.6,0,0,0,.24-.05.49.49,0,0,0,.34-.4q1.76-8.89,2.95-17.9A.56.56,0,0,0,46.85,6.11ZM43.77,20.28c-5.89-.65-11.94-1.34-17.28-4.06A101.5,101.5,0,0,0,30,4,36.34,36.34,0,0,0,46.28,7.19,95.37,95.37,0,0,1,43.77,20.28Z"/><path class="cls-7" d="M40.48,8.83a1.5,1.5,0,0,0-1.92-.24h0a1.27,1.27,0,0,0-.55.66,1.23,1.23,0,0,0,.17,1.46,1.63,1.63,0,0,0,2.21.16A1.39,1.39,0,0,0,40.48,8.83Z"/><path class="cls-5" d="M27.45,4.08a7.28,7.28,0,0,0-1-2.48C25.57.38,24.18.37,22.71.75a15.12,15.12,0,0,0-1.9.62C18,2.4,7.91,6,7.6,6.12,6.1,6.86,6.09,8,6.52,9.36c.05.22,5.79,18.49,6.16,19.45.51,1.31,1.27,2.46,2.55,2.51S31.7,26.05,32.4,25.74a1.82,1.82,0,0,0,1.28-1.5,2.21,2.21,0,0,0-.07-1.15C33.35,21.9,28.42,6.15,27.45,4.08Z"/><path class="cls-8" d="M28.75,4.17a7.33,7.33,0,0,0-1.22-2.38c-1-1.14-2.35-1-3.78-.53a15.83,15.83,0,0,0-1.85.79C19.19,3.32,9.46,7.76,9.16,7.94c-1.43.86-1.34,2-.79,3.32.06.21,7.37,17.92,7.83,18.84.61,1.25,1.47,2.34,2.75,2.27s16-6.68,16.63-7a1.8,1.8,0,0,0,1.13-1.61,2.06,2.06,0,0,0-.16-1.13C36.19,21.41,29.91,6.15,28.75,4.17Z"/><path class="cls-9" d="M27,8.08c-2.42-1.85-5.74-.17-6.36,2.49C18.41,9,14.83,10,14.29,13a5.57,5.57,0,0,0,2.42,5.32c2.3,1.66,5.08.66,7.38,2a.41.41,0,0,0,.4,0,.38.38,0,0,0,.27-.29c.78-2.55,3.5-3.69,4.08-6.46A5.57,5.57,0,0,0,27,8.08Z"/><path class="cls-10" d="M25,13.42l-1.24.48a.48.48,0,0,0-.31.44l-.15,1.6-2-3.18a.45.45,0,0,0-.82.26c0,.73-.05,1.47-.08,2.2l-.93.36c-.54.21-.27,1.07.27.86L20.94,16a.48.48,0,0,0,.32-.45l0-1c.65,1,1.3,2,2,3.06a.45.45,0,0,0,.82-.26l.24-2.61,1-.37C25.8,14.07,25.54,13.21,25,13.42Z"/><path class="cls-6" d="M23.84,26.44q-1.92-3-3.57-6.23c-.89-1.56-1.73-3.14-2.49-4.77-.5-1-1-2-1.4-3a.79.79,0,0,0-.48-.24.69.69,0,0,0-.38.09h-.06a.6.6,0,0,1-.13.09l-.19.11s0,0,0,0C12.05,14.59,4.28,18.86,1,21.07a1.32,1.32,0,0,0-.43.42,1.19,1.19,0,0,0-.09,1,7.65,7.65,0,0,0,.62,1.29.39.39,0,0,0,.08.1l9.93,17.9a.76.76,0,0,0,.08.11h0l.24.45a4.11,4.11,0,0,0,.7,1,1.85,1.85,0,0,0,.28.28,1,1,0,0,0,1.35-.14C16.94,41.37,23.94,36.11,27,34a1.21,1.21,0,0,0,.73-1,2.24,2.24,0,0,0-.2-1.09A55.46,55.46,0,0,1,23.84,26.44Z"/><path class="cls-11" d="M21.68,31.29c-1.65,1.08.56-.35-1.11.71-.69.44.09,1.45.77,1,1.67-1-.54.37,1.11-.71C23.13,31.85,22.36,30.84,21.68,31.29Z"/><path class="cls-11" d="M12.8,24.77C11.21,26,9.44,27,7.81,28.12c-.68.46.06,1.5.73,1C10.18,28,12,27,13.54,25.81,14.19,25.32,13.46,24.28,12.8,24.77Z"/><path class="cls-11" d="M16.94,28.67c-2.37,1.47-3.14,1.79-7,4.51a.64.64,0,0,0,.71,1.06c4.13-2.75,4.63-3.05,7-4.51C18.34,29.3,17.63,28.24,16.94,28.67Z"/><path class="cls-11" d="M18.46,33.67c-2.76,1.81-3.31,2.21-5.52,3.8a.64.64,0,0,0,.72,1.05c4.1-2.79,2.86-2,5.52-3.8A.64.64,0,0,0,18.46,33.67Z"/><path class="cls-11" d="M11.41,22.66a46.81,46.81,0,0,0-4.7,3.23.64.64,0,0,0,.73,1.05c4.08-2.81,2.36-1.74,4.69-3.24C12.82,23.26,12.1,22.22,11.41,22.66Z"/><path class="cls-11" d="M14.91,17.34c-3.17,2.13-6.35,4.25-9.51,6.4a.63.63,0,0,0,.71,1.05c3.16-2.14,6.34-4.27,9.51-6.39A.64.64,0,0,0,14.91,17.34Z"/><path class="cls-11" d="M21,28.68c-3.17,2.13-6.34,4.25-9.5,6.4a.63.63,0,0,0,.71,1.05q4.74-3.21,9.5-6.4A.63.63,0,0,0,21,28.68Z"/><rect class="cls-8" x="42.39" y="15" width="17.09" height="17.09" rx="1.13" ry="1.13" transform="translate(3.51 53.54) rotate(-57.12)"/><path class="cls-12" d="M45.9,21.39a1.35,1.35,0,0,0-2.09,1.7l.43.52a2,2,0,0,0,2.84.3l4-3.26a.42.42,0,0,1,.52,0l3.14,2.66a.27.27,0,0,1,0,.44l-2.86,2.32a.32.32,0,0,1-.47,0l-.64-.79a1.36,1.36,0,0,0-1.9-.19L49,25a1.35,1.35,0,0,0-.2,1.89l.43.53a2,2,0,0,0,2.84.29l6.17-5a.54.54,0,0,0,0-.86l-4.7-4a.84.84,0,0,0-1,0L47,22.23a.33.33,0,0,1-.47-.05Z"/><path class="cls-6" d="M18.14,78.06a33.88,33.88,0,0,0,6.58.9c6.59.38,15.8.17,19.7-.54s4.11-1.79-5.89-2.33C30,75.63,20.08,76.28,18,77.25,17.38,77.51,17.41,77.8,18.14,78.06Z"/><path class="cls-6" d="M54.94,29.6a69.19,69.19,0,0,0-11.3-4.22,42.36,42.36,0,0,0-11.4-1.68A41.94,41.94,0,0,0,20.9,25.38,65.63,65.63,0,0,0,9.6,29.6a2.21,2.21,0,0,0-1.46,2.09c0,11.25,1.5,20,5.13,27.28S22.62,72,31.06,77.35a2.32,2.32,0,0,0,2.41,0C41.91,72,47.63,66.27,51.26,59s5.09-16,5.09-27.28A2.25,2.25,0,0,0,54.94,29.6Z"/><path class="cls-13" d="M54.94,29.6a69.19,69.19,0,0,0-11.3-4.22,42.36,42.36,0,0,0-11.4-1.68A41.94,41.94,0,0,0,20.9,25.38,65.63,65.63,0,0,0,9.6,29.6a2.21,2.21,0,0,0-1.46,2.09c0,11.25,1.5,20,5.13,27.28S22.62,72,31.06,77.35a2.32,2.32,0,0,0,2.41,0C41.91,72,47.63,66.27,51.26,59s5.09-16,5.09-27.28A2.25,2.25,0,0,0,54.94,29.6Zm-6.7,17.58A31.5,31.5,0,0,1,45.47,56C42.94,61.11,39,65.11,33.1,68.8a1.62,1.62,0,0,1-1.67,0c-5.75-3.61-9.68-7.53-12.21-12.47A29.8,29.8,0,0,1,17,49.69c-.79-3.64-.93-7.88.49-11.44a8.9,8.9,0,0,1,3.19-4,13.55,13.55,0,0,1,3.69-1.57,27.71,27.71,0,0,1,7.89-1.16,24.64,24.64,0,0,1,7.92,1.16A12.47,12.47,0,0,1,46,36.33a8,8,0,0,1,1.76,3.31A19.26,19.26,0,0,1,48.24,47.18Z"/><path class="cls-13" d="M32.37,58.14a6.83,6.83,0,0,1-7.1-5.79,1.23,1.23,0,0,1,1-1.45c.66-.13,11.61-.13,12.27,0a1.23,1.23,0,0,1,1,1.45A6.82,6.82,0,0,1,32.37,58.14Z"/><path class="cls-13" d="M21,44.26a1.87,1.87,0,0,0,.74,1.06,1.8,1.8,0,0,0,2.4-.44,1.77,1.77,0,0,0-.57-2.65,1.8,1.8,0,0,0-2.55,1.14A1.68,1.68,0,0,0,21,44.26Z"/><path class="cls-13" d="M40,44.71a1.89,1.89,0,0,0,.74,1,1.82,1.82,0,0,0,2.41-.44,1.77,1.77,0,0,0-.57-2.64A1.79,1.79,0,0,0,40,43.81,1.72,1.72,0,0,0,40,44.71Z"/><path class="cls-14" d="M11.53,33.69a1,1,0,0,0,.42.59A1,1,0,0,0,13.3,34a1,1,0,1,0-1.75-.85A.94.94,0,0,0,11.53,33.69Z"/><path class="cls-14" d="M16.22,31.5a1.05,1.05,0,0,0,.41.59A1,1,0,0,0,18,31.84a1,1,0,0,0-.32-1.49,1,1,0,0,0-1.43.64A1,1,0,0,0,16.22,31.5Z"/><path class="cls-14" d="M21.06,29.7a1,1,0,0,0,.42.59,1,1,0,0,0,1.35-.24,1,1,0,0,0-.32-1.49,1,1,0,0,0-1.43.64A.94.94,0,0,0,21.06,29.7Z"/><path class="cls-14" d="M26.1,28.55a1,1,0,0,0,.42.59,1,1,0,0,0,1.35-.24,1,1,0,0,0-.32-1.49,1,1,0,0,0-1.43.64A.94.94,0,0,0,26.1,28.55Z"/><path class="cls-14" d="M31.27,28.39a1.08,1.08,0,0,0,.42.59A1,1,0,0,0,33,28.73a1,1,0,0,0-.32-1.48,1,1,0,0,0-1.43.64A.94.94,0,0,0,31.27,28.39Z"/><path class="cls-14" d="M52.93,33.19a1,1,0,0,0-1.43-.64A1,1,0,0,0,51.18,34a1,1,0,0,0,1.35.24,1,1,0,0,0,.41-.59A1.06,1.06,0,0,0,52.93,33.19Z"/><path class="cls-14" d="M48.24,31a1,1,0,1,0-.4,1.1,1.12,1.12,0,0,0,.42-.59A1,1,0,0,0,48.24,31Z"/><path class="cls-14" d="M43.4,29.2A1,1,0,0,0,42,28.56a1,1,0,0,0-.32,1.49,1,1,0,0,0,1.36.24,1.08,1.08,0,0,0,.41-.59A1.06,1.06,0,0,0,43.4,29.2Z"/><path class="cls-14" d="M38.36,28.05a1,1,0,0,0-1.43-.64,1,1,0,0,0-.32,1.49,1,1,0,0,0,1.35.24,1.08,1.08,0,0,0,.41-.59A1.06,1.06,0,0,0,38.36,28.05Z"/><path class="cls-14" d="M33.19,27.89a1,1,0,0,0-1.43-.64,1,1,0,0,0-.32,1.48,1,1,0,0,0,1.35.25,1,1,0,0,0,.4-1.09Z"/><path class="cls-14" d="M33.2,72.77a1,1,0,0,0-1.43-.64,1,1,0,0,0-.32,1.48,1,1,0,0,0,1.76-.34A.94.94,0,0,0,33.2,72.77Z"/><path class="cls-14" d="M37.8,70.25a1,1,0,0,0-1.43-.64,1,1,0,0,0-.32,1.48,1,1,0,0,0,1.76-.34A.94.94,0,0,0,37.8,70.25Z"/><path class="cls-14" d="M41.73,66.77a1,1,0,0,0-1.43-.64A1,1,0,0,0,40,67.62a1,1,0,0,0,1.35.24,1,1,0,0,0,.42-.59A.94.94,0,0,0,41.73,66.77Z"/><path class="cls-14" d="M45.4,63a1,1,0,1,0-1.75.85,1,1,0,0,0,1.35.24,1.08,1.08,0,0,0,.42-.59A.94.94,0,0,0,45.4,63Z"/><path class="cls-14" d="M48.32,58.68a1,1,0,0,0-1.43-.63,1,1,0,0,0-.32,1.48,1,1,0,0,0,1.35.25,1.08,1.08,0,0,0,.42-.59A1,1,0,0,0,48.32,58.68Z"/><path class="cls-14" d="M50.47,53.91A1,1,0,0,0,49,53.27a1,1,0,0,0-.32,1.48,1,1,0,0,0,1.35.25,1.08,1.08,0,0,0,.42-.59A.94.94,0,0,0,50.47,53.91Z"/><path class="cls-14" d="M51.89,48.87a1,1,0,1,0-1.75.85,1,1,0,0,0,1.35.25,1.1,1.1,0,0,0,.42-.6A.94.94,0,0,0,51.89,48.87Z"/><path class="cls-14" d="M52.62,43.68A1,1,0,0,0,51.19,43a1,1,0,0,0-.32,1.48,1,1,0,0,0,1.35.25,1.08,1.08,0,0,0,.42-.59A.94.94,0,0,0,52.62,43.68Z"/><path class="cls-14" d="M52.93,38.44a1,1,0,1,0-1.76.85,1,1,0,0,0,1.36.24,1,1,0,0,0,.4-1.09Z"/><path class="cls-14" d="M52.93,33.19a1,1,0,0,0-1.43-.64A1,1,0,0,0,51.18,34a1,1,0,0,0,1.35.24,1,1,0,0,0,.41-.59A1.06,1.06,0,0,0,52.93,33.19Z"/><path class="cls-14" d="M31.25,73.27a1,1,0,0,0,1.76.34,1,1,0,0,0-.32-1.48,1,1,0,0,0-1.43.64A1.06,1.06,0,0,0,31.25,73.27Z"/><path class="cls-14" d="M26.65,70.75a1.07,1.07,0,0,0,.41.59,1,1,0,0,0,1.35-.25,1,1,0,0,0-.32-1.48,1,1,0,0,0-1.43.64A1.06,1.06,0,0,0,26.65,70.75Z"/><path class="cls-14" d="M22.72,67.27a1,1,0,0,0,1.76.35,1,1,0,0,0-.32-1.49,1,1,0,0,0-1.43.64A.94.94,0,0,0,22.72,67.27Z"/><path class="cls-14" d="M19.05,63.53a1,1,0,0,0,1.76.35,1,1,0,0,0-.32-1.49,1,1,0,0,0-1.43.64A.94.94,0,0,0,19.05,63.53Z"/><path class="cls-14" d="M16.13,59.19a1,1,0,0,0,1.76.34,1,1,0,0,0-.32-1.48,1,1,0,0,0-1.43.64A.94.94,0,0,0,16.13,59.19Z"/><path class="cls-14" d="M14,54.41a1,1,0,0,0,1.76.34,1,1,0,0,0-.32-1.48,1,1,0,0,0-1.43.64A.94.94,0,0,0,14,54.41Z"/><path class="cls-14" d="M12.56,49.37a1,1,0,0,0,1.76.35A1,1,0,0,0,14,48.23a1,1,0,0,0-1.43.64A.94.94,0,0,0,12.56,49.37Z"/><path class="cls-14" d="M11.83,44.18a1,1,0,0,0,1.76.34A1,1,0,0,0,13.27,43a1,1,0,0,0-1.43.64A.94.94,0,0,0,11.83,44.18Z"/><path class="cls-14" d="M11.52,38.94a1.08,1.08,0,0,0,.42.59,1,1,0,0,0,1.35-.24,1,1,0,1,0-1.75-.85A.94.94,0,0,0,11.52,38.94Z"/><path class="cls-14" d="M11.52,33.69a1,1,0,0,0,.42.59A1,1,0,0,0,13.29,34a1,1,0,1,0-1.75-.85A.94.94,0,0,0,11.52,33.69Z"/></g></svg>