<svg width="96" height="96" viewBox="0 0 96 96" fill="none" xmlns="http://www.w3.org/2000/svg">
<path fill-rule="evenodd" clip-rule="evenodd" d="M83.071 56.5851C83.105 53.8699 83.084 51.157 83.057 48.4445C83.084 45.731 83.105 43.0186 83.071 40.3034C83.0121 35.6335 83.2947 30.962 82.9392 26.2953C82.8532 25.1632 82.3529 24.4651 81.6197 24.0385C81.4948 23.9655 81.0917 23.79 80.6681 23.6312C80.2639 23.4793 79.7528 23.2808 78.7861 23.196C74.7168 22.8403 60.4 22.8617 55.0993 22.9615C49.2939 22.8773 24.5249 22.8022 18.1013 23.2835C16.7732 23.3838 15.4267 23.5834 14.3508 24.6802C13.2388 25.8146 13.1897 27.0836 13.1394 28.2088C12.92 33.1545 12.8482 37.8056 12.8887 42.7556C12.9017 44.2903 12.8995 46.1576 12.8882 48.165H12.8844C12.8849 48.2589 12.8854 48.3506 12.886 48.4445C12.8854 48.5373 12.8849 48.6296 12.8844 48.7235H12.8882C12.8995 50.7309 12.9017 52.5977 12.8887 54.1329C12.8482 59.0829 12.92 63.734 13.1394 68.6797C13.1897 69.8054 13.2388 71.0739 14.3508 72.2088C15.4267 73.3051 16.7732 73.5052 18.1013 73.605C24.5249 74.0863 49.2939 74.0112 55.0993 73.927C60.4 74.0262 74.7168 74.0482 78.7861 73.6925C79.7528 73.6077 80.2639 73.4092 80.6681 73.2573C81.0917 73.0985 81.4948 72.923 81.6197 72.85C82.3529 72.4234 82.8532 71.7253 82.9392 70.5932C83.2947 65.9265 83.0121 61.255 83.071 56.5851Z" fill="#FFD799"/>
<path fill-rule="evenodd" clip-rule="evenodd" d="M44.6558 1.48565L13.9981 24.5409C12.8532 25.4023 12.8532 27.2212 13.9981 28.082L44.6558 51.1379C46.741 52.7065 49.5199 52.7065 51.6056 51.1379L82.2633 28.082C83.4083 27.2212 83.4083 25.4023 82.2633 24.5409L51.6056 1.48565C49.5199 -0.0829451 46.741 -0.0829451 44.6558 1.48565Z" fill="#297EF2"/>
<path fill-rule="evenodd" clip-rule="evenodd" d="M79.3303 48.0128C79.3612 45.2749 79.3417 42.5402 79.3179 39.8049C79.3417 37.0697 79.3612 34.3344 79.3303 31.597C79.2773 26.889 79.53 22.1788 79.2119 17.474C79.1356 16.3327 78.6888 15.6285 78.0342 15.1979C77.9217 15.1251 77.562 14.9481 77.1838 14.7878C76.8225 14.6351 76.3664 14.4344 75.5025 14.3491C71.8673 13.9903 59.0779 14.0124 54.3429 14.1128C49.1561 14.0275 27.0293 13.952 21.2908 14.4376C20.1044 14.538 18.9013 14.7393 17.9406 15.8454C16.9468 16.9889 16.903 18.2683 16.8581 19.403C16.6618 24.3895 16.5979 29.0787 16.6342 34.0695C16.6455 35.6171 16.6434 37.4992 16.6336 39.5233H16.6304C16.6309 39.6177 16.6315 39.7105 16.632 39.8049C16.6315 39.8988 16.6309 39.9922 16.6304 40.0866H16.6336C16.6434 42.1107 16.6455 43.9928 16.6342 45.5404C16.5979 50.5312 16.6618 55.2198 16.8581 60.2068C16.903 61.3416 16.9468 62.6205 17.9406 63.7644C18.9013 64.8701 20.1044 65.0719 21.2908 65.1722C27.0293 65.6579 49.1561 65.5823 54.3429 65.4971C59.0779 65.5974 71.8673 65.6196 75.5025 65.2607C76.3664 65.1755 76.8225 64.9747 77.1838 64.822C77.562 64.6618 77.9217 64.4848 78.0342 64.4114C78.6888 63.9813 79.1356 63.2777 79.2119 62.1359C79.53 57.4311 79.2773 52.7209 79.3303 48.0128Z" fill="#35CE68"/>
<path fill-rule="evenodd" clip-rule="evenodd" d="M82.9713 27.2235C82.8335 27.6034 82.606 27.953 82.2629 28.2119L51.6058 51.3561C49.5201 52.9307 46.7411 52.9307 44.656 51.3561L13.9983 28.2119C13.6411 27.9427 13.4093 27.5757 13.2748 27.1779C13.184 27.6685 13.1597 28.1538 13.1397 28.6152C12.9198 33.6186 12.8485 38.3236 12.889 43.3303C12.9014 44.8832 12.8992 46.7722 12.8879 48.8022H12.8847C12.8852 48.8977 12.8857 48.9906 12.8863 49.085C12.8857 49.1795 12.8852 49.2728 12.8847 49.3678H12.8879C12.8992 51.3984 12.9014 53.2868 12.889 54.8397C12.8485 59.847 12.9198 64.5519 13.1397 69.5548C13.1894 70.6931 13.2386 71.9768 14.3511 73.1243C15.4264 74.2337 16.7729 74.4356 18.1011 74.5372C24.5251 75.024 49.2942 74.948 55.0996 74.8628C60.4003 74.9632 74.7171 74.9855 78.7864 74.6256C79.7531 74.5399 80.2637 74.3385 80.6679 74.1854C81.0915 74.0248 81.4951 73.8473 81.6199 73.7734C82.3526 73.3419 82.853 72.6357 82.9389 71.4905C83.295 66.7698 83.0118 62.0442 83.0713 57.3203C83.1053 54.5737 83.0842 51.8294 83.0567 49.085C83.0842 46.3406 83.1053 43.5968 83.0713 40.8497C83.014 36.3071 83.268 31.7628 82.9713 27.2235Z" fill="#BBD9FD"/>
<path fill-rule="evenodd" clip-rule="evenodd" d="M69.0732 61.8147L50.9918 48.0176C48.9148 46.4333 46.1486 46.4333 44.0711 48.0176L25.9902 61.8147H69.0732Z" fill="#BBD9FD"/>
<path fill-rule="evenodd" clip-rule="evenodd" d="M14.3701 70.5211C14.3701 70.6747 14.2455 70.7984 14.0929 70.7984C13.9393 70.7984 13.8147 70.6747 13.8147 70.5211C13.8147 70.3675 13.9393 70.2439 14.0929 70.2439C14.2455 70.2439 14.3701 70.3675 14.3701 70.5211Z" fill="#FF9300"/>
<path fill-rule="evenodd" clip-rule="evenodd" d="M82.7407 70.5211C82.7407 70.6747 82.6171 70.7984 82.4635 70.7984C82.3099 70.7984 82.1853 70.6747 82.1853 70.5211C82.1853 70.3675 82.3099 70.2439 82.4635 70.2439C82.6171 70.2439 82.7407 70.3675 82.7407 70.5211Z" fill="#FF9300"/>
<path fill-rule="evenodd" clip-rule="evenodd" d="M83.122 70.9532C83.0524 70.8746 82.9812 70.7975 82.9029 70.7303L82.3836 70.267L80.288 68.4403C78.8905 67.224 77.4686 66.0391 76.0597 64.8369C73.2142 62.4698 70.3617 60.112 67.4694 57.8074C64.6016 55.4697 61.6637 53.2253 58.759 50.9369C57.305 49.7955 55.8216 48.6931 54.354 47.5684L53.2502 46.7297L52.9745 46.5197L52.6303 46.275C52.3954 46.1014 52.1344 45.9642 51.8804 45.8166C51.3573 45.5464 50.8033 45.3321 50.2301 45.1813C49.6532 45.0414 49.0611 44.9654 48.4662 44.9562C47.8702 44.9611 47.2775 45.0376 46.7006 45.1754C46.1259 45.3251 45.5701 45.5378 45.0465 45.8068C44.792 45.9539 44.5294 46.0911 44.2939 46.2642L43.9486 46.5083L43.6719 46.7172L42.5664 47.5538L38.1696 50.9337C35.2665 53.2237 32.3258 55.4648 29.4597 57.8036C26.5669 60.1088 23.7138 62.4655 20.8694 64.8336C19.4611 66.0364 18.0402 67.2223 16.6417 68.4387L14.5471 70.2653L14.0284 70.7292C13.9517 70.7948 13.8821 70.8702 13.8147 70.9467L14.0425 71.1784C14.11 71.1247 14.1785 71.0726 14.253 71.0276L14.8435 70.6592L17.1854 69.1597C18.7449 68.1582 20.2821 67.1263 21.8313 66.1112C24.9025 64.0437 27.9649 61.9648 30.9887 59.8343C34.0376 57.7374 37.013 55.5429 40.0254 53.3978L44.5027 50.1237L45.6147 49.2969L45.8931 49.0902C45.9866 49.0202 46.041 48.9898 46.1155 48.9367C46.2515 48.8336 46.4053 48.7636 46.5489 48.6757C46.8496 48.5271 47.1617 48.4099 47.4831 48.3263C47.8066 48.2536 48.1356 48.2167 48.4662 48.2097C48.7962 48.2124 49.1258 48.2498 49.4498 48.3204C49.7717 48.4028 50.0855 48.5184 50.3878 48.6659C50.5319 48.7533 50.6869 48.8227 50.8234 48.9258C50.8984 48.979 50.9533 49.0094 51.0474 49.0788L51.3253 49.285L52.4405 50.109C53.9309 51.2028 55.4051 52.3176 56.9086 53.394C59.9193 55.5413 62.8975 57.7326 65.9458 59.8305C68.9691 61.9615 72.0315 64.0394 75.1027 66.108C76.6518 67.1236 78.188 68.1566 79.748 69.1575L82.0894 70.6581L82.6794 71.0265C82.7555 71.0726 82.8251 71.1258 82.8936 71.1806L83.122 70.9532Z" fill="#297EF2"/>
<path d="M41.9124 31.844L46.128 35.5903L55.0245 26.2245" stroke="white" stroke-width="3" stroke-linecap="round" stroke-linejoin="round"/>
<path opacity="0.155413" fill-rule="evenodd" clip-rule="evenodd" d="M25.5384 93.5979C27.4459 94.4923 32.3406 95.2673 36.2871 95.5782C47.0575 96.4263 62.1103 95.9733 68.4886 94.421C74.9168 92.8559 75.2044 90.4859 58.8606 89.3055C44.9469 88.3001 28.7058 89.7213 25.2325 91.8413C24.3008 92.4102 24.3519 93.0424 25.5384 93.5979Z" fill="black"/>
</svg>
