<svg xmlns="http://www.w3.org/2000/svg" width="16" height="16" viewBox="0 0 16 16">
  <g fill="none" fill-rule="evenodd" transform="translate(-32 -192)">
    <path fill="#297EF2" d="M42.4976633,199.749147 C41.6159591,199.285574 41,198.229106 41,197 C41,195.343146 42.1192881,194 43.5,194 C44.8807119,194 46,195.343146 46,197 C46,198.231276 45.3818635,199.289304 44.4976633,199.751597 L44.4976633,201 L45.6029583,201.552647 C46.0929335,201.797635 46.6979499,202.400573 46.9450158,202.894705 L47.0503108,203.105295 C47.2952984,203.59527 47.0512777,204 46.5006332,204 L40.4946935,204 C39.9506996,204 39.6979499,203.599427 39.9450158,203.105295 L40.0503108,202.894705 C40.2952984,202.40473 40.8982364,201.799713 41.3923684,201.552647 L42.4976633,201 L42.4976633,199.749147 Z M36,202.800843 C34.8348076,202.320368 34,201.023922 34,199.5 C34,197.567003 35.3431458,196 37,196 C38.6568542,196 40,197.567003 40,199.5 C40,201.023922 39.1651924,202.320368 38,202.800843 L38,204 L40.0507812,204.683594 C40.5828629,204.860954 41.2002865,205.400573 41.4473525,205.894705 L41.5526475,206.105295 C41.7976351,206.59527 41.5543453,207 41.0046024,207 L32.9953976,207 C32.4556644,207 32.2002865,206.599427 32.4473525,206.105295 L32.5526475,205.894705 C32.7976351,205.40473 33.4249797,204.85834 33.9492188,204.683594 L36,204 L36,202.800843 Z"/>
  </g>
</svg>
