<svg width="15" height="16" viewBox="0 0 15 16" fill="none" xmlns="http://www.w3.org/2000/svg">
<path d="M14.9918 8V7.5V5C14.9918 4.449 14.5438 4 13.9918 4C13.4398 4 12.9918 4.449 12.9918 5V7V8H11.9918V7V6V2C11.9918 1.449 11.5438 1 10.9918 1C10.4398 1 9.99183 1.449 9.99183 2V6V7H8.99183V6V3V1C8.99183 0.449 8.54383 0 7.99183 0C7.44083 0 6.99183 0.449 6.99183 1V3V6V7H5.99183V6V2C5.99183 1.449 5.54283 1 4.99183 1C4.44083 1 3.99183 1.449 3.99183 2V8.5C3.99183 8.709 3.86183 8.896 3.66483 8.969C3.46883 9.043 3.24783 8.984 3.11183 8.825L1.10083 6.125C0.878826 5.943 0.461826 5.959 0.203826 6.216C-0.0361736 6.457 -0.0681736 6.835 0.128826 7.114C0.192826 7.231 1.67083 11.258 3.35583 13.912C4.18783 15.219 5.60883 16 7.15683 16H10.4918C12.9728 16 14.9918 13.981 14.9918 11.5V8Z" fill="#1D212A" fill-opacity="0.72"/>
</svg>
