<svg xmlns="http://www.w3.org/2000/svg" width="160" height="160" viewBox="0 0 160 160">
  <g fill="none" fill-rule="evenodd" transform="translate(0 16)">
    <path fill="#32363F" d="M10,105 L10,10 L10,10 C10,4.4771525 14.4771525,1.01453063e-15 20,0 L140,0 L140,0 C145.522847,-1.01453063e-15 150,4.4771525 150,10 L150,105 L10,105 Z"/>
    <rect width="120" height="80" x="20" y="10" fill="#5D6165" rx="1"/>
    <path fill="#95999D" d="M92.5,105 L62.5,105 L62.5,105 C61.1192881,105 60,103.880712 60,102.5 L60,102.5 L60,102.5 C60,101.119288 58.8807119,100 57.5,100 L2.5,100 L2.5,100 C1.11928813,100 -1.69088438e-16,101.119288 0,102.5 L0,110 L0,110 C6.76353751e-16,115.522847 4.4771525,120 10,120 L150,120 L150,120 C155.522847,120 160,115.522847 160,110 L160,102.5 L160,102.5 C160,101.119288 158.880712,100 157.5,100 L97.5,100 L97.5,100 C96.1192881,100 95,101.119288 95,102.5 L95,102.5 L95,102.5 C95,103.880712 93.8807119,105 92.5,105 Z"/>
    <g transform="translate(120 64)">
      <path fill="#95999D" d="M34.6666667,64 L5.33333333,64 C2.38666667,64 0,61.5067826 0,58.4347826 L0,5.56521739 C0,2.49321739 2.38666667,0 5.33333333,0 L34.6666667,0 C37.6106667,0 40,2.49321739 40,5.56521739 L40,58.4347826 C40,61.5067826 37.6106667,64 34.6666667,64 Z"/>
      <path stroke="#F5F6F7" d="M16,3.00195312 L24,3" stroke-linecap="round" stroke-linejoin="round"/>
      <path fill="#F5F6F7" d="M23,59 C23,60.656 21.656,62 20,62 C18.344,62 17,60.656 17,59 C17,57.344 18.344,56 20,56 C21.656,56 23,57.344 23,59 L23,59 Z"/>
      <rect width="36" height="50" x="2" y="6" fill="#32363F" rx="1"/>
    </g>
  </g>
</svg>
