<svg width="16px" height="16px" viewBox="0 0 16 16" version="1.1" xmlns="http://www.w3.org/2000/svg" xmlns:xlink="http://www.w3.org/1999/xlink">
    <path d="M7.88866394,13.9989877 L7,10 L6,9 L4,6 L3.64539075,3.87234452 C2.62559227,4.94785733 2,6.40087117 2,8 C2,11.2765166 4.62632955,13.9396208 7.88866394,13.9989877 Z M8.12663738,2.00130991 L10,3.5 L10,5 L8,6.5 L6.5,7.5 L7,8.5 L10,9 L11,10 L11,11.5 L9.45110858,13.8233371 C12.0637207,13.1744316 14,10.8133371 14,8 C14,4.72860754 11.3818787,2.06871043 8.12663738,2.00130991 Z M8,16 C3.58172178,16 0,12.4182782 0,8 C0,3.58172178 3.58172178,0 8,0 C12.4182782,0 16,3.58172178 16,8 C16,12.4182782 12.4182782,16 8,16 Z" id="path-1"></path>
</svg>
