<svg xmlns="http://www.w3.org/2000/svg" width="16" height="16" viewBox="0 0 16 16">
  <path fill="#95999D" fill-rule="evenodd" d="M202.072716,67 L193.006845,67 C192.449949,67 192,67.4477153 192,68 L192,69 L199,72 L204.253623,69.7484471 C203.023873,69.3360772 202.294616,68.41764 202.072716,67 Z M192,71 L199,74 L206,71 L206,76.9970707 C206,77.5509732 205.550051,78 204.993155,78 L193.006845,78 C192.45078,78 192,77.5621186 192,76.9970707 L192,71 Z M205.5,69 C206.880712,69 208,67.8807119 208,66.5 C208,65.1192881 206.880712,64 205.5,64 C204.119288,64 203,65.1192881 203,66.5 C203,67.8807119 204.119288,69 205.5,69 Z" transform="translate(-192 -64)"/>
</svg>
