<svg width="102" height="102" viewBox="0 0 102 102" fill="none" xmlns="http://www.w3.org/2000/svg">
<rect width="101.617" height="101.617" rx="50.8086" fill="#F6FAFF"/>
<path d="M73.1567 41.8926C70.1526 29.9251 58.0158 22.6588 46.0482 25.6629C36.6959 28.0107 29.905 36.0938 29.2053 45.7108C22.5647 46.8059 18.0692 53.0769 19.1643 59.7174C20.1378 65.621 25.2532 69.9444 31.2363 69.9207H41.3915V65.8586H31.2363C26.7495 65.8586 23.1122 62.2213 23.1122 57.7345C23.1122 53.2477 26.7495 49.6104 31.2363 49.6104C32.3581 49.6104 33.2674 48.7011 33.2674 47.5794C33.2572 37.484 41.433 29.2919 51.5283 29.2819C60.2673 29.2731 67.7901 35.4512 69.4806 44.0251C69.562 44.4426 69.7724 44.824 70.0821 45.1155C70.3918 45.407 70.7853 45.594 71.207 45.6499C76.7595 46.4406 80.6196 51.5828 79.829 57.1352C79.1191 62.1212 74.862 65.8335 69.8259 65.8586H61.7017V69.9207H69.8259C77.6778 69.897 84.0238 63.5124 83.9999 55.6605C83.9801 49.1244 79.5062 43.4437 73.1567 41.8926Z" fill="#CFDDEE"/>
<path d="M50.1046 50.2L41.9805 58.3241L44.8442 61.1879L49.5156 56.5368V76.0144H53.5777V56.5368L58.2287 61.1879L61.0925 58.3241L52.9684 50.2C52.1761 49.4125 50.8968 49.4125 50.1046 50.2Z" fill="#0A84FF"/>
</svg>
