<svg xmlns="http://www.w3.org/2000/svg" viewBox="0 0 512 124"><defs><style>.cls-1{fill:#b7f6f7;}.cls-2,.cls-8{fill:#fff;}.cls-3{fill:#2bd1d4;}.cls-4{fill:#bbd9fd;}.cls-5,.cls-6{fill:#288afc;}.cls-6{stroke:#288afc;}.cls-6,.cls-8{stroke-miterlimit:10;}.cls-7{fill:#fedba7;}.cls-8{stroke:#906cea;stroke-width:5px;}.cls-9{fill:#906cea;}</style></defs><title>double_authent_prez_banner</title><g id="bg"><rect class="cls-1" width="512" height="124"/></g><g id="Calque_2" data-name="Calque 2"><path class="cls-2" d="M454.38,78.07a122.33,122.33,0,0,0-1-16.89c-.42-3.08-.29-8.54-4.2-9.6-4.12-1.1-9.12-.06-13.36.1-6.83.24-13.7-.16-20.53-.2-2.89,0-5.78,0-8.67,0s-5.77-.05-8.66,0c-6.84,0-13.7.44-20.53.2-4.24-.16-9.24-1.2-13.36-.1-3.91,1.06-3.78,6.52-4.2,9.6a123.92,123.92,0,0,0-1,16.89c0,4.84-.25,9.84,0,14.67a12.41,12.41,0,0,0,1.28,5.54c2,6.16,12,5.31,17.45,5.39,9.67.16,19.34-.07,29-.19,9.68.12,19.35.35,29,.19,5.41-.08,15.41.77,17.45-5.39a12.68,12.68,0,0,0,1.28-5.54C454.63,87.91,454.36,82.91,454.38,78.07Z"/><path class="cls-3" d="M366,115.76c3.38.83,12.06,1.55,19.07,1.83,19.11.78,45.82.35,57.14-1.11s11.92-3.67-17.08-4.75c-24.69-.92-53.51.42-59.68,2.39C363.78,114.65,363.87,115.24,366,115.76Z"/><path class="cls-3" d="M70.88,115.76c3.38.83,12.07,1.55,19.07,1.83,19.11.78,45.82.35,57.14-1.11S159,112.81,130,111.73c-24.69-.92-53.51.42-59.67,2.39C68.68,114.65,68.77,115.24,70.88,115.76Z"/><path class="cls-3" d="M227.27,115.74c2.38.84,8.48,1.56,13.4,1.84,13.42.79,32.19.36,40.14-1.08s8.37-3.67-12-4.76c-17.35-.93-37.59.4-41.92,2.37C225.72,114.64,225.79,115.23,227.27,115.74Z"/><path class="cls-4" d="M302.24,17a141.45,141.45,0,0,0-23-8.6,80.16,80.16,0,0,0-46.33,0,135.12,135.12,0,0,0-23,8.6,4.52,4.52,0,0,0-3,4.26c0,22.93,3.06,40.78,10.46,55.57s19,26.64,36.25,37.46a4.69,4.69,0,0,0,4.9,0c17.2-10.82,28.85-22.57,36.25-37.46s10.36-32.64,10.36-55.57A4.57,4.57,0,0,0,302.24,17Z"/><path class="cls-5" d="M302.24,17a141.45,141.45,0,0,0-23-8.6,80.16,80.16,0,0,0-46.33,0,135.12,135.12,0,0,0-23,8.6,4.52,4.52,0,0,0-3,4.26c0,22.93,3.06,40.78,10.46,55.57s19,26.64,36.25,37.46a4.69,4.69,0,0,0,4.9,0c17.2-10.82,28.85-22.57,36.25-37.46s10.36-32.64,10.36-55.57A4.57,4.57,0,0,0,302.24,17ZM288.59,52.83a64,64,0,0,1-5.65,18.07c-5.14,10.33-13.24,18.48-25.19,26a3.25,3.25,0,0,1-3.4,0c-11.73-7.37-19.73-15.35-24.89-25.41A62.11,62.11,0,0,1,224.92,58c-1.6-7.42-1.89-16.05,1-23.31a18.24,18.24,0,0,1,6.52-8.06A27.08,27.08,0,0,1,240,23.41,56.1,56.1,0,0,1,256,21a50,50,0,0,1,16.12,2.38A25.2,25.2,0,0,1,284,30.73a16.62,16.62,0,0,1,3.58,6.76A39.07,39.07,0,0,1,288.59,52.83Z"/><path class="cls-5" d="M233.17,46.9a3.89,3.89,0,0,0,1.5,2.15,3.69,3.69,0,0,0,4.9-.9,3.61,3.61,0,0,0-1.16-5.39,3.65,3.65,0,0,0-5.19,2.32A3.41,3.41,0,0,0,233.17,46.9Z"/><path class="cls-5" d="M271.79,47.81a3.89,3.89,0,0,0,1.5,2.15,3.71,3.71,0,0,0,4.91-.91A3.62,3.62,0,0,0,277,43.66,3.66,3.66,0,0,0,271.84,46,3.55,3.55,0,0,0,271.79,47.81Z"/><path class="cls-6" d="M270.51,67.58c-.83-.61-1.8-1.84-1.77-2.45a1.63,1.63,0,0,0-.73-1.5,1.9,1.9,0,0,0-1.85-.09,1.78,1.78,0,0,0-1,1.49,4.09,4.09,0,0,0,.6,2.32A20.1,20.1,0,0,1,246.87,67a4.51,4.51,0,0,0,.41-2.54,1.8,1.8,0,0,0-2-1.54,1.53,1.53,0,0,0-1.38,1.77c.13,1.06-.75,1.8-1.91,2.66a1.76,1.76,0,0,0-.7,1.62,1.79,1.79,0,0,0,1,1.44,1.41,1.41,0,0,0,.6.13,1.59,1.59,0,0,0,1-.34c.28-.21.61-.45,1-.74a23.8,23.8,0,0,0,23,.39,7.19,7.19,0,0,0,.77.66,1.74,1.74,0,0,0,1,.35,1.63,1.63,0,0,0,1.31-.7A1.84,1.84,0,0,0,270.51,67.58Z"/><path class="cls-7" d="M213.8,25.36a2.16,2.16,0,0,0,.85,1.21,2.08,2.08,0,0,0,2.75-.51,2,2,0,0,0-.66-3,2.06,2.06,0,0,0-2.91,1.31A2,2,0,0,0,213.8,25.36Z"/><path class="cls-7" d="M223.34,20.88a2.16,2.16,0,0,0,.85,1.21,2.07,2.07,0,0,0,2.75-.5,2,2,0,0,0-.66-3,2.05,2.05,0,0,0-2.91,1.3A2,2,0,0,0,223.34,20.88Z"/><path class="cls-7" d="M233.22,17.23a2.16,2.16,0,0,0,.85,1.21,2.08,2.08,0,0,0,2.75-.51,2,2,0,0,0-.66-3,2.06,2.06,0,0,0-2.91,1.31A2,2,0,0,0,233.22,17.23Z"/><path class="cls-7" d="M243.49,14.89a2.13,2.13,0,0,0,.84,1.2,2.07,2.07,0,0,0,2.75-.5,2,2,0,0,0-.65-3,2.06,2.06,0,0,0-2.91,1.3A2,2,0,0,0,243.49,14.89Z"/><path class="cls-7" d="M254,14.55a2.16,2.16,0,0,0,.85,1.21,2.08,2.08,0,0,0,2.75-.5,2,2,0,1,0-3.57-1.73A2,2,0,0,0,254,14.55Z"/><path class="cls-7" d="M298.14,24.34A2.06,2.06,0,0,0,295.22,23a2,2,0,0,0-.65,3,2.08,2.08,0,0,0,2.75.51,2.12,2.12,0,0,0,.85-1.21A2,2,0,0,0,298.14,24.34Z"/><path class="cls-7" d="M288.6,19.86a2.06,2.06,0,0,0-2.92-1.3,2,2,0,0,0-.65,3,2.07,2.07,0,0,0,2.75.51,2.16,2.16,0,0,0,.85-1.21A2,2,0,0,0,288.6,19.86Z"/><path class="cls-7" d="M278.72,16.21a2.06,2.06,0,0,0-2.92-1.31,2,2,0,0,0-.65,3,2.08,2.08,0,0,0,2.75.51,2.16,2.16,0,0,0,.85-1.21A2,2,0,0,0,278.72,16.21Z"/><path class="cls-7" d="M268.45,13.86a2.06,2.06,0,0,0-2.91-1.3,2,2,0,0,0-.65,3,2.06,2.06,0,0,0,2.75.5,2.13,2.13,0,0,0,.84-1.2A2,2,0,0,0,268.45,13.86Z"/><path class="cls-7" d="M257.92,13.53a2,2,0,1,0-3.57,1.73,2.08,2.08,0,0,0,2.75.5,2.12,2.12,0,0,0,.85-1.21A2,2,0,0,0,257.92,13.53Z"/><path class="cls-7" d="M258,105a2.07,2.07,0,0,0-2.92-1.3,2,2,0,0,0-.65,3A2,2,0,0,0,258,106,2,2,0,0,0,258,105Z"/><path class="cls-7" d="M267.32,99.83a2.07,2.07,0,0,0-2.92-1.3,2,2,0,0,0-.65,3,2.07,2.07,0,0,0,2.75.5,2.14,2.14,0,0,0,.85-1.2A2.11,2.11,0,0,0,267.32,99.83Z"/><path class="cls-7" d="M275.33,92.75a2.06,2.06,0,0,0-2.91-1.3,2,2,0,0,0-.66,3,2.07,2.07,0,0,0,2.75.5,2.09,2.09,0,0,0,.85-1.2A2,2,0,0,0,275.33,92.75Z"/><path class="cls-7" d="M282.81,85.13a2.06,2.06,0,0,0-2.92-1.3,2,2,0,0,0-.65,3,2.07,2.07,0,0,0,2.75.51,2.11,2.11,0,0,0,.84-1.21A2,2,0,0,0,282.81,85.13Z"/><path class="cls-7" d="M288.76,76.28A2,2,0,1,0,285.19,78a2.08,2.08,0,0,0,2.75.5,2.16,2.16,0,0,0,.85-1.21A2.08,2.08,0,0,0,288.76,76.28Z"/><path class="cls-7" d="M293.14,66.54a2.06,2.06,0,0,0-2.92-1.3,2,2,0,0,0-.65,3,2.07,2.07,0,0,0,2.75.5,2.14,2.14,0,0,0,.85-1.2A2,2,0,0,0,293.14,66.54Z"/><path class="cls-7" d="M296,56.29A2.06,2.06,0,0,0,293.12,55a2,2,0,0,0-.66,3,2.07,2.07,0,0,0,2.75.5,2.14,2.14,0,0,0,.85-1.2A2,2,0,0,0,296,56.29Z"/><path class="cls-7" d="M297.52,45.7a2.06,2.06,0,0,0-2.92-1.3,2,2,0,0,0-.65,3,2.07,2.07,0,0,0,2.75.5,2.11,2.11,0,0,0,.84-1.2A1.9,1.9,0,0,0,297.52,45.7Z"/><path class="cls-7" d="M298.14,35a2.05,2.05,0,0,0-2.92-1.3,2,2,0,0,0-.65,3,2.07,2.07,0,0,0,2.75.51,2.16,2.16,0,0,0,.85-1.21A2,2,0,0,0,298.14,35Z"/><path class="cls-7" d="M298.14,24.34A2.06,2.06,0,0,0,295.22,23a2,2,0,0,0-.65,3,2.08,2.08,0,0,0,2.75.51,2.12,2.12,0,0,0,.85-1.21A2,2,0,0,0,298.14,24.34Z"/><path class="cls-7" d="M254,106a2.14,2.14,0,0,0,.85,1.2,2.07,2.07,0,0,0,2.75-.5,2,2,0,0,0-.66-3A2.06,2.06,0,0,0,254,105,2,2,0,0,0,254,106Z"/><path class="cls-7" d="M244.6,100.86a2.13,2.13,0,0,0,.84,1.2,2.08,2.08,0,0,0,2.76-.5,2,2,0,1,0-3.57-1.73A2,2,0,0,0,244.6,100.86Z"/><path class="cls-7" d="M236.59,93.78a2.16,2.16,0,0,0,.84,1.2,2.06,2.06,0,0,0,2.75-.5,2,2,0,0,0-.65-3,2.06,2.06,0,0,0-2.91,1.3A2,2,0,0,0,236.59,93.78Z"/><path class="cls-7" d="M229.11,86.15a2.16,2.16,0,0,0,.85,1.21,2.07,2.07,0,0,0,2.75-.51,2,2,0,0,0-.66-3,2,2,0,0,0-2.91,1.3A2,2,0,0,0,229.11,86.15Z"/><path class="cls-7" d="M223.16,77.3a2.15,2.15,0,0,0,.84,1.21,2.08,2.08,0,0,0,2.76-.51,2,2,0,1,0-3.57-1.72A2,2,0,0,0,223.16,77.3Z"/><path class="cls-7" d="M218.78,67.57a2.13,2.13,0,0,0,.84,1.2,2.08,2.08,0,0,0,2.76-.5,2,2,0,1,0-3.57-1.73A2,2,0,0,0,218.78,67.57Z"/><path class="cls-7" d="M215.89,57.31a2.13,2.13,0,0,0,.84,1.2,2.06,2.06,0,0,0,2.75-.5,2,2,0,0,0-.65-3,2.06,2.06,0,0,0-2.91,1.31A2,2,0,0,0,215.89,57.31Z"/><path class="cls-7" d="M214.4,46.73a2.17,2.17,0,0,0,.85,1.2,2.07,2.07,0,0,0,2.75-.5,2,2,0,0,0-.66-3,2.06,2.06,0,0,0-2.91,1.3A2,2,0,0,0,214.4,46.73Z"/><path class="cls-7" d="M213.78,36.05a2.12,2.12,0,0,0,.85,1.21,2.07,2.07,0,0,0,2.75-.51,2,2,0,0,0-.66-3,2,2,0,0,0-2.91,1.3A2,2,0,0,0,213.78,36.05Z"/><path class="cls-7" d="M213.78,25.36a2.15,2.15,0,0,0,.84,1.21,2.09,2.09,0,0,0,2.76-.51,2,2,0,1,0-3.57-1.72A2,2,0,0,0,213.78,25.36Z"/><path class="cls-5" d="M391.5,29.65A16.5,16.5,0,0,0,398,38.88c6.74,4.19,16.56,2.78,21-3.87s5.25-17.24-5-23.14c-8.73-5-19.54.66-22.28,10A15.18,15.18,0,0,0,391.5,29.65Z"/><path class="cls-2" d="M404.48,30.82a37.09,37.09,0,0,1,6.09-.74c1.39,0,2.08.3,2.08.9s-1.19,1.18-3.56,1.84a22,22,0,0,1-5.46,1,3.12,3.12,0,0,1-1.91-1A2.69,2.69,0,0,1,400.6,31c0-.35.95-1.3,2.87-2.87.79-.66,1.58-1.35,2.38-2.08a15.41,15.41,0,0,0,2-2.23,3.61,3.61,0,0,0,.84-2.05c0-.61-.28-.91-.85-.91a1.65,1.65,0,0,0-1.16.48,4.39,4.39,0,0,0-.78,1c-.19.32-.33.49-.42.49a2.79,2.79,0,0,1-1.47-.64c-.59-.43-.88-.8-.88-1.11a3.25,3.25,0,0,1,1.35-2.44,4.9,4.9,0,0,1,3.28-1.15,3.94,3.94,0,0,1,3,1.17,4.25,4.25,0,0,1,1.1,3,7.61,7.61,0,0,1-2.1,4.91A19.32,19.32,0,0,1,404.48,30.82Z"/><path class="cls-5" d="M95,29.65a16.53,16.53,0,0,0,6.46,9.23c6.74,4.19,16.56,2.78,21-3.87s5.25-17.24-5-23.14c-8.73-5-19.53.66-22.27,10A15.18,15.18,0,0,0,95,29.65Z"/><path class="cls-2" d="M113.54,17.63a.8.8,0,0,0-1.16-.23h-.13l-.17,0s-.07,0-.11,0h0a.46.46,0,0,0-.21.08,27.17,27.17,0,0,1-3.7,2.55c-1.26.72-2.3,1.28-3.13,1.66a9.82,9.82,0,0,0-1.53.8,1.31,1.31,0,0,0-.36.87,1.27,1.27,0,0,0,.16.92.33.33,0,0,0,.25.11.76.76,0,0,0,.48.15,22.35,22.35,0,0,0,4.77-1.36,7.55,7.55,0,0,0,.92-.34c-.09.83-.2,1.64-.35,2.44-.35,1.85-.69,3.35-1,4.49a12.14,12.14,0,0,0-.5,2.2,1.37,1.37,0,0,0,.34.79l0,.15c0,.1.12.15.18.23a.81.81,0,0,0,.54.41.78.78,0,0,0,.93.08c-.32,0-.33,0,0,0h0l.06,0h0l.12-.06a.84.84,0,0,0,.75-.48,48.48,48.48,0,0,0,2.94-9.56C114,21.83,114.41,19.25,113.54,17.63Z"/><path class="cls-2" d="M113.46,33.48a10.29,10.29,0,0,1-2.18.31c-.83,0-1.57.06-2.21.07s-1.28,0-1.88.06l-1.46.07h-1.15c-.77,0-1.19-.17-1.26-.43a1.3,1.3,0,0,1,.23-.9,1.27,1.27,0,0,1,.67-.66,10.56,10.56,0,0,1,1.73-.12c.91,0,2.09-.11,3.53-.27a27.65,27.65,0,0,0,4.41-.86.4.4,0,0,1,.55.32,2.22,2.22,0,0,1-.29,1.38C113.88,33.08,113.64,33.42,113.46,33.48Z"/><path class="cls-8" d="M170.55,64.41c.17-4.83-2.16-7.5-6.83-7.5-9.49,0-22.25.19-27.25.25-17.82.23-24.27-.22-56.25.25-3,.05-20.18.17-23.17.17-1.87,0-4.52-.16-6.08,1.21-1.11,1-1.58,2.54-1.5,7,.08,4,.09,14.33.25,17.66,0,2.34,1.33,6.5,9.54,6.48,3.27,0,90.71-.23,105.15-.42,4,0,5.77-2.24,6.19-5.31C170.79,79.91,170.57,68,170.55,64.41Z"/><path class="cls-9" d="M58.72,74.36A2.85,2.85,0,0,0,59.78,76a2.48,2.48,0,0,0,3.42-.69,2.76,2.76,0,0,0-.84-4A2.53,2.53,0,0,0,58.75,73,2.8,2.8,0,0,0,58.72,74.36Z"/><path class="cls-9" d="M67.81,74.38A2.76,2.76,0,0,0,68.87,76a2.49,2.49,0,0,0,3.42-.69,2.78,2.78,0,0,0-.84-4A2.51,2.51,0,0,0,67.84,73,2.69,2.69,0,0,0,67.81,74.38Z"/><path class="cls-9" d="M76.89,74.4A2.89,2.89,0,0,0,78,76a2.49,2.49,0,0,0,3.42-.69,2.77,2.77,0,0,0-.83-4,2.52,2.52,0,0,0-3.62,1.74A2.8,2.8,0,0,0,76.89,74.4Z"/><path class="cls-9" d="M86,74.42A2.81,2.81,0,0,0,87,76a2.48,2.48,0,0,0,3.42-.69,2.75,2.75,0,0,0-.84-4A2.52,2.52,0,0,0,86,73.07,2.68,2.68,0,0,0,86,74.42Z"/><path class="cls-9" d="M95.06,74.44A2.82,2.82,0,0,0,96.13,76a2.46,2.46,0,0,0,3.41-.69,2.77,2.77,0,0,0-.83-4,2.53,2.53,0,0,0-3.62,1.74A3,3,0,0,0,95.06,74.44Z"/><path class="cls-9" d="M104.15,74.45A2.85,2.85,0,0,0,105.21,76a2.48,2.48,0,0,0,3.42-.69,2.76,2.76,0,0,0-.84-4,2.52,2.52,0,0,0-3.61,1.74A2.69,2.69,0,0,0,104.15,74.45Z"/><path class="cls-9" d="M113.24,74.47a2.85,2.85,0,0,0,1.06,1.59,2.5,2.5,0,0,0,3.42-.69,2.77,2.77,0,0,0-.84-4,2.51,2.51,0,0,0-3.61,1.74A2.69,2.69,0,0,0,113.24,74.47Z"/><path class="cls-9" d="M122.32,74.49a2.9,2.9,0,0,0,1.07,1.59,2.48,2.48,0,0,0,3.41-.69,2.76,2.76,0,0,0-.83-4,2.52,2.52,0,0,0-3.62,1.74A2.93,2.93,0,0,0,122.32,74.49Z"/><path class="cls-9" d="M131.41,74.51a2.86,2.86,0,0,0,1.06,1.58,2.48,2.48,0,0,0,3.42-.69,2.75,2.75,0,0,0-.84-4,2.52,2.52,0,0,0-3.61,1.74A2.68,2.68,0,0,0,131.41,74.51Z"/><path class="cls-5" d="M144.51,80c-.29-4.61.05-11.31-.06-15.94,0-1.91-3-1.79-3,.12.11,4.63-.24,11.33.06,15.94C141.67,82,144.63,81.93,144.51,80Z"/><path class="cls-9" d="M440.58,88.53c-3.55-2.83-7.13-5.63-10.79-8.31-5-3.67-11.2-8.85-17.65-9.43a15.4,15.4,0,0,0-5.52.57,15.32,15.32,0,0,0-5.51-.57c-6.46.58-12.64,5.76-17.65,9.43-3.67,2.68-7.24,5.48-10.79,8.31-2.23,1.76-9.63,8-12.3,10.13,3.16,5.78,10.26,4.71,16,4.54,9.8-.28,20.1-1.93,30.24-3,10.14,1,20.45,2.67,30.25,3,5.75.17,12.84,1.24,16-4.54C450.21,96.53,442.8,90.29,440.58,88.53Z"/><path class="cls-2" d="M440.47,92.52c-3.56-2.82-7.13-5.62-10.79-8.3-5-3.67-11.2-8.86-17.65-9.43a15.24,15.24,0,0,0-5.41.54,15.18,15.18,0,0,0-5.4-.54c-6.45.57-12.63,5.76-17.65,9.43-3.66,2.68-7.24,5.48-10.79,8.3-2.22,1.77-7.82,6.57-10.49,8.7,3.79,2.9,11,2.38,15.32,2.45,9.67.16,19.34-.07,29-.19,9.68.12,19.35.35,29,.19,4.31-.07,11.53.45,15.32-2.45C448.28,99.09,442.69,94.29,440.47,92.52Z"/><path class="cls-9" d="M448.37,52.26c-4.12-1.11-8.44,3.76-12.68,3.91-6.83.25-13.69-.16-20.53-.19-2.85,0-5.69,0-8.54,0s-5.69-.05-8.53,0c-6.84,0-13.7.44-20.53.19-4.24-.15-8.57-5-12.68-3.91-1.23.33-3-.75-4.39,3.88l.76,3.31C362.09,67,372,69.81,377.72,73.31c4.42,2.7,8.74,5.6,13.31,8.06,3.89,2.09,8.54,5.16,13,5.69a109.24,109.24,0,0,0,5.12,0c4.49-.53,9.15-3.6,13-5.69,4.57-2.46,8.88-5.36,13.31-8.06,5.74-3.5,15.63-6.28,16.47-13.86l.76-3.31C451.39,51.51,449.59,52.59,448.37,52.26Z"/><path class="cls-2" d="M449.18,51.58c-4.12-1.1-9.12-.06-13.36.1-6.83.24-13.7-.16-20.53-.2-2.89,0-5.78,0-8.67,0s-5.77-.05-8.66,0c-6.84,0-13.7.44-20.53.2-4.24-.16-9.24-1.2-13.36-.1a4.26,4.26,0,0,0-2.63,2.09l.17.93c.84,7.59,10.24,10.71,16,14.22,4.43,2.69,8.74,5.59,13.31,8.05,3.89,2.09,8.54,5.16,13,5.69a120.62,120.62,0,0,0,5.38,0c4.49-.53,9.15-3.6,13-5.69,4.57-2.46,8.88-5.36,13.31-8.05,5.74-3.51,15.14-6.63,16-14.22l.17-.93A4.32,4.32,0,0,0,449.18,51.58Z"/><path class="cls-5" d="M388.29,66.19c0,.44-.2.67-.6.67-.65,0-1.5-.8-2.55-2.38-1.37,1.58-2.29,2.38-2.76,2.38a1.25,1.25,0,0,1-.92-.48,1.34,1.34,0,0,1-.45-.84c0-.06.13-.21.38-.45a26.85,26.85,0,0,0,2.5-2.68c-.51-.94-.95-1.83-1.31-2.68a6.51,6.51,0,0,1-.54-1.56,2.51,2.51,0,0,1,0-.37.29.29,0,0,1,.32-.23,5,5,0,0,1,1.6.29c.55.2.83.43.83.7a5,5,0,0,0,.54,1.83,15.22,15.22,0,0,1,1.79-2.19,2,2,0,0,1,1.14-.65,1.54,1.54,0,0,1,1,.52,1.45,1.45,0,0,1,.55.94.57.57,0,0,1-.17.38,3.16,3.16,0,0,1-.48.42,4.53,4.53,0,0,0-.62.55c-.2.2-.86,1-2,2.36l.52.91A9.13,9.13,0,0,1,388.29,66.19Z"/><path class="cls-5" d="M398.17,66.19c0,.44-.2.67-.6.67-.64,0-1.5-.8-2.55-2.38-1.37,1.58-2.29,2.38-2.76,2.38a1.25,1.25,0,0,1-.92-.48,1.32,1.32,0,0,1-.44-.84c0-.06.12-.21.37-.45a28.3,28.3,0,0,0,2.51-2.68,28.65,28.65,0,0,1-1.32-2.68,6.51,6.51,0,0,1-.54-1.56,2.51,2.51,0,0,1,0-.37.29.29,0,0,1,.32-.23,5,5,0,0,1,1.6.29c.56.2.83.43.83.7a5,5,0,0,0,.54,1.83A15.13,15.13,0,0,1,397,58.2a1.94,1.94,0,0,1,1.13-.65,1.54,1.54,0,0,1,1,.52,1.41,1.41,0,0,1,.55.94.61.61,0,0,1-.16.38,3.32,3.32,0,0,1-.49.42,4.53,4.53,0,0,0-.62.55c-.2.2-.86,1-2,2.36l.52.91A9.13,9.13,0,0,1,398.17,66.19Z"/><path class="cls-5" d="M408.05,66.19c0,.44-.2.67-.59.67-.65,0-1.5-.8-2.56-2.38-1.37,1.58-2.29,2.38-2.75,2.38a1.26,1.26,0,0,1-.93-.48,1.32,1.32,0,0,1-.44-.84c0-.06.12-.21.38-.45a28.09,28.09,0,0,0,2.5-2.68,28.65,28.65,0,0,1-1.32-2.68,6.51,6.51,0,0,1-.54-1.56,2.51,2.51,0,0,1,0-.37.3.3,0,0,1,.33-.23,5,5,0,0,1,1.59.29c.56.2.84.43.84.7a5,5,0,0,0,.54,1.83,15.22,15.22,0,0,1,1.79-2.19,1.94,1.94,0,0,1,1.13-.65,1.52,1.52,0,0,1,1,.52,1.41,1.41,0,0,1,.55.94.56.56,0,0,1-.16.38,3.32,3.32,0,0,1-.49.42,5.2,5.2,0,0,0-.62.55c-.2.2-.85,1-2,2.36l.52.91A9.13,9.13,0,0,1,408.05,66.19Z"/><path class="cls-5" d="M417.93,66.19c0,.44-.2.67-.59.67-.65,0-1.5-.8-2.56-2.38-1.37,1.58-2.28,2.38-2.75,2.38a1.27,1.27,0,0,1-.93-.48,1.37,1.37,0,0,1-.44-.84c0-.06.13-.21.38-.45a28.09,28.09,0,0,0,2.5-2.68,28.44,28.44,0,0,1-1.31-2.68,6.51,6.51,0,0,1-.54-1.56,3.15,3.15,0,0,1,0-.37.3.3,0,0,1,.33-.23,5,5,0,0,1,1.59.29c.56.2.84.43.84.7a5,5,0,0,0,.54,1.83,15.22,15.22,0,0,1,1.79-2.19,1.94,1.94,0,0,1,1.13-.65,1.5,1.5,0,0,1,1,.52,1.41,1.41,0,0,1,.55.94.56.56,0,0,1-.16.38,3.32,3.32,0,0,1-.49.42,5.2,5.2,0,0,0-.62.55c-.19.2-.85,1-2,2.36l.52.91A8.81,8.81,0,0,1,417.93,66.19Z"/><path class="cls-5" d="M427.82,66.19c0,.44-.2.67-.6.67-.65,0-1.5-.8-2.55-2.38-1.37,1.58-2.29,2.38-2.76,2.38a1.29,1.29,0,0,1-.93-.48,1.37,1.37,0,0,1-.44-.84c0-.06.13-.21.38-.45a26.85,26.85,0,0,0,2.5-2.68c-.51-.94-.95-1.83-1.31-2.68a6.51,6.51,0,0,1-.54-1.56,2.51,2.51,0,0,1,0-.37.29.29,0,0,1,.32-.23,4.87,4.87,0,0,1,1.59.29c.56.2.84.43.84.7a5,5,0,0,0,.54,1.83,15.22,15.22,0,0,1,1.79-2.19,1.93,1.93,0,0,1,1.14-.65,1.54,1.54,0,0,1,1,.52,1.43,1.43,0,0,1,.54.94.56.56,0,0,1-.16.38,3.16,3.16,0,0,1-.48.42,4,4,0,0,0-.62.55c-.2.2-.86,1-2,2.36l.53.91A9.13,9.13,0,0,1,427.82,66.19Z"/></g></svg>