<?xml version="1.0" encoding="UTF-8"?>
<svg width="150px" height="148px" viewBox="0 0 150 148" version="1.1" xmlns="http://www.w3.org/2000/svg" xmlns:xlink="http://www.w3.org/1999/xlink">
    <!-- Generator: Sketch 50 (54983) - http://www.bohemiancoding.com/sketch -->
    <title>icon-export</title>
    <desc>Created with Sketch.</desc>
    <defs>
        <polygon id="path-1" points="0.724706542 0.676049383 56.6299735 0.676049383 56.6299735 65.7984582 0.724706542 65.7984582"></polygon>
        <polygon id="path-3" points="0.208661728 0.252604938 49.6375556 0.252604938 49.6375556 49.6818642 0.208661728 49.6818642"></polygon>
    </defs>
    <g id="🚛-Demenager" stroke="none" stroke-width="1" fill="none" fill-rule="evenodd">
        <g id="recuperer-mes-données" transform="translate(-566.000000, -189.000000)">
            <g id="modale" transform="translate(368.000000, 157.000000)">
                <g id="icon-export" transform="translate(178.000000, 32.000000)">
                    <rect id="Rectangle-6" x="0" y="1" width="170" height="147"></rect>
                    <polygon id="Fill-1" fill="#C17C44" points="85.0332099 11.1527136 25.5627901 45.4878 85.0332099 79.8228864 144.50363 45.4878"></polygon>
                    <g id="Group-156" transform="translate(20.000000, 0.237531)">
                        <path d="M98.4114123,40.5235877 C99.990079,36.9460074 101.738672,33.4332914 103.625215,30.0146741 C104.923412,27.3863037 106.312054,24.7972173 107.828598,22.2894395 C108.695585,20.7034642 109.631091,19.1531185 110.636943,17.639316 C110.699067,17.3424025 110.657956,17.0326988 110.519091,16.762279 C110.407635,16.579563 110.247758,16.4306494 110.055906,16.3338099 L109.999264,16.2671185 L109.758993,16.1666247 C109.650277,16.1154642 109.544301,16.0597358 109.441067,15.9966988 C103.757684,13.7291926 90.881684,7.05000741 84.9187457,4.65734074 C84.6181778,4.51025432 84.2874617,4.43808148 83.9530914,4.44904444 C83.3528691,4.47919259 82.8019802,4.78798272 82.4621284,5.28405679 C82.0035111,5.91077284 81.6079309,6.58408148 81.2845235,7.29027901 C81.2516346,7.35422963 81.2260543,7.42183457 81.2068691,7.49126667 C76.0889926,17.4639086 71.0058321,27.3936123 65.9573877,37.2812914 C65.9190173,37.3470691 65.8888691,37.4183284 65.8678568,37.4923284 C65.7353877,37.7399086 65.6029185,37.9884025 65.4905481,38.2378099 C65.1488691,38.8124519 64.9012889,39.4391679 64.7578568,40.0923778 C64.6975605,40.2988469 64.6610173,40.509884 64.6473136,40.7245753 C64.6482272,41.563242 65.2594123,42.2767481 66.0880296,42.4073901 C71.9121037,44.727884 85.3938074,49.4483531 91.0790173,51.6957605 C91.6819802,52.0758099 92.4411654,52.1114395 93.0770173,51.7880321 C93.6014123,51.4801556 94.0408444,51.0452914 94.3523753,50.5218099 C95.5089679,47.113242 96.864721,43.7750198 98.4114123,40.5235877" id="Fill-2" fill="#3281EE"></path>
                        <path d="M87.2441728,46.8097506 C87.4241481,40.1780716 87.2423457,22.4902444 87.4077037,15.9919481 C87.468,15.3369111 87.4515556,14.5832074 87.1190123,14.0341457 C86.654,13.2639975 85.8692346,13.2301951 85.1584691,13.1653309 L85.1584691,13.1644173 C78.9360741,12.205158 73.1375802,11.3820222 66.924321,10.4154543 C66.8768148,10.3935284 66.8302222,10.3697753 66.7790617,10.3597259 C66.4766667,10.2966889 66.166963,10.2053309 65.8700494,10.2446148 C65.4653333,10.2628864 65.1172593,10.4282444 64.9381975,10.8558 C64.8559753,11.0540469 64.8185185,11.271479 64.795679,11.493479 C64.7901975,11.5272815 64.7764938,11.5519481 64.7755802,11.5903185 C64.7728395,11.687158 64.7700988,11.7702938 64.767358,11.863479 C64.7600494,11.9922938 64.7518272,12.1201951 64.7399506,12.2462691 C64.7372099,12.2773309 64.75,12.3065654 64.7527407,12.3385407 C64.5608889,18.7336025 64.2438765,38.0887136 64.0538519,44.9104173 C64.0529383,45.2530099 64.027358,45.6029111 64.1159753,45.942763 C64.2055062,46.404121 64.4138025,46.8060963 64.8230864,47.0226148 C65.2268889,47.2373062 65.6654074,47.2281704 66.0865679,47.2939481 C66.1304198,47.3012568 66.1678765,47.2857259 66.2071605,47.2756765 C72.3244938,47.9023926 78.4418272,48.5254543 84.5582469,49.1439481 C84.6057531,49.1494296 84.6422963,49.1348123 84.6824938,49.1275037 L84.6852346,49.1275037 C84.8396296,49.1521704 84.9931111,49.1731827 85.145679,49.1832321 C85.5421728,49.2380469 85.9258765,49.2343926 86.2511111,49.074516 C86.3735309,49.0379728 86.4932099,48.9913802 86.6028395,48.9164667 C87.1162716,48.5656519 87.2533086,47.6365407 87.2441728,46.8097506" id="Fill-4" fill="#FF8E8E"></path>
                        <path d="M71.4956025,18.2318642 C69.3158,17.7942593 70.7318494,17.9413457 67.0071827,17.6188519 C66.3685901,17.564037 66.292763,19.4414444 66.9386642,19.5318889 C70.8396519,20.0745556 69.2463679,19.7072963 71.427084,20.1439877 C72.0675037,20.2718889 72.1378494,18.360679 71.4956025,18.2318642" id="Fill-6" fill="#F52D2D"></path>
                        <path d="M76.364163,14.9540296 C73.3621383,14.4744 70.3601136,13.9838074 67.3571753,13.5315852 C66.7131012,13.4347457 66.6299654,15.345042 67.2740395,15.4418815 C70.2778914,15.8931901 73.279916,16.3828691 76.2819407,16.8643259 C76.9251012,16.9666469 77.008237,15.0563506 76.364163,14.9540296" id="Fill-8" fill="#F52D2D"></path>
                        <path d="M83.8360617,26.1070173 C80.8285556,25.7516346 69.8518889,24.7741037 66.8443827,24.447042 C66.1993951,24.3748691 66.1372716,26.2888198 66.7831728,26.3582519 C69.790679,26.6862272 80.7682593,27.663758 83.7748519,28.0209679 C84.4198395,28.0977086 84.4810494,26.183758 83.8360617,26.1070173" id="Fill-10" fill="#F52D2D"></path>
                        <path d="M83.8360617,30.8417383 C80.8285556,30.4863556 69.8518889,29.5088247 66.8443827,29.181763 C66.1993951,29.1095901 66.1372716,31.0235407 66.7831728,31.0929728 C69.790679,31.4209481 80.7682593,32.398479 83.7748519,32.7556889 C84.4198395,32.8324296 84.4810494,30.918479 83.8360617,30.8417383" id="Fill-12" fill="#F52D2D"></path>
                        <g id="Group-16" transform="translate(21.012346, 0.000000)">
                            <mask id="mask-2" fill="white">
                                <use xlink:href="#path-1"></use>
                            </mask>
                            <g id="Clip-15"></g>
                            <path d="M39.2504222,3.02842716 C39.2367185,3.01563704 39.2321506,3.00193333 39.2184469,2.98914321 C38.3971383,2.32953827 37.4086444,1.81976049 36.7709654,0.960081481 C36.3287926,0.36442716 35.4426198,0.801118519 35.4956074,1.37941481 C35.331163,1.79418025 35.235237,2.22356296 35.1539284,2.65751358 C34.7382494,2.34872346 34.3463235,2.01618025 34.0375333,1.59958765 C33.5953605,1.00393333 32.7082741,1.43971111 32.7612617,2.01800741 C32.4862741,2.71598272 32.3857802,3.45324198 32.2587926,4.18684691 C31.6320765,3.74467407 30.993484,3.3088963 30.5357802,2.69314321 C30.094521,2.09657531 29.2074346,2.53326667 29.2604222,3.11156296 C28.990916,3.79035309 28.8895086,4.50568642 28.7670889,5.21919259 C28.1586444,4.79255062 27.5428914,4.3631679 27.0998049,3.76568642 C26.6576321,3.16911852 25.7705457,3.60580988 25.8235333,4.18410617 C25.5540272,4.8628963 25.4517062,5.57822963 25.3311136,6.2917358 C24.720842,5.86418025 24.1050889,5.43571111 23.662916,4.83731605 C23.2207432,4.24166173 22.3336568,4.67835309 22.3866444,5.2557358 C22.102521,5.97472346 22.0047679,6.73299506 21.8722988,7.48669877 C21.2273111,7.0317358 20.5631383,6.58682222 20.0917309,5.95097037 C19.6486444,5.35531605 18.7624716,5.79018025 18.8154593,6.36939012 C18.5514346,7.03995802 18.4472864,7.74341481 18.3276074,8.4468716 C17.7282988,8.02571111 17.1262494,7.6008963 16.689558,7.0134642 C16.2473852,6.41780988 15.3602988,6.85358765 15.4123728,7.43097037 C15.1364716,8.12985926 15.0368914,8.86620494 14.9099037,9.5988963 C14.2831877,9.15855062 13.6445951,8.72185926 13.1878049,8.10610617 C12.7456321,7.50953827 11.8594593,7.94531605 11.9124469,8.52452593 C11.6438543,9.20331605 11.5397062,9.91864938 11.4191136,10.6330691 C10.8097556,10.2046 10.194916,9.77521728 9.75000247,9.1777358 C9.30874321,8.58208148 8.42165679,9.01877284 8.47555802,9.59615556 C8.20605185,10.2767728 8.10281728,10.9911926 7.98131111,11.7046988 C7.37286667,11.2771432 6.75802716,10.8486741 6.31311358,10.250279 C5.87185432,9.65462469 4.98568148,10.0894889 5.03866914,10.6686988 C4.7536321,11.3867728 4.65587901,12.1450444 4.52340988,12.8996617 C3.87842222,12.4456123 3.21424938,11.9988716 2.74375556,11.3648469 C2.30066914,10.768279 1.4144963,11.2049704 1.46657037,11.7823531 C1.10387901,12.6995877 1.03810123,13.6807728 0.824323457,14.6363778 C0.801483951,14.7103778 0.785953086,14.7907728 0.773162963,14.8729951 C0.765854321,14.9004025 0.76311358,14.9287235 0.754891358,14.9561309 C0.734792593,15.031958 0.739360494,15.0968222 0.742101235,15.1635136 C0.740274074,15.2210691 0.72382963,15.2694889 0.72474321,15.3297852 C1.75069383,17.4940568 2.6724963,19.6948716 3.51664444,21.924921 C5.02770617,25.4997605 6.36427407,29.1321556 7.56928642,32.8120568 C9.38731111,37.6430691 11.0116568,42.5471679 12.4076074,47.5307481 C13.5057309,51.4500074 14.6550148,55.6113654 15.5850395,59.756279 C15.9751383,61.4948222 15.7165951,62.6541556 16.3917309,63.2041309 C17.144521,63.9386494 18.0791136,64.5434395 18.6300025,65.4588469 C19.0127926,66.0946988 19.9373358,65.7457111 19.9409901,65.1655877 C20.2278543,64.6046494 20.3941259,64.0053407 20.5567432,63.4042049 C20.6691136,63.3777111 20.7823975,63.3503037 20.8993358,63.3238099 C21.3789654,63.7404025 21.8439778,64.1743531 22.1728667,64.7188469 C22.5547432,65.3556123 23.4802,65.0066247 23.4829407,64.4265012 C23.7807679,63.843637 23.9497802,63.2205753 24.117879,62.5938593 C24.2211136,62.5710198 24.3270889,62.5472667 24.4321506,62.5253407 C24.9327926,62.9574642 25.4224716,63.4032914 25.763237,63.9706247 C26.1460272,64.6046494 27.0696568,64.2574889 27.0733111,63.6773654 C27.3775333,63.0835383 27.5456321,62.4486 27.7173852,61.8118346 C27.7868173,61.7972173 27.8589901,61.7816864 27.9302494,61.7661556 C28.4400272,62.2055877 28.9406691,62.6587235 29.2878296,63.234279 C29.6706198,63.8701309 30.5942494,63.5220568 30.5979037,62.9419333 C30.9048667,62.3444519 31.0729654,61.7040321 31.2456321,61.0617852 C31.3123235,61.0480815 31.3762741,61.0334642 31.4420519,61.0206741 C31.9573111,61.4628469 32.462521,61.9178099 32.8124222,62.4997605 C33.1952123,63.1337852 34.1197556,62.7866247 34.1224963,62.2055877 C34.4294593,61.6071926 34.5984716,60.9631185 34.7720519,60.3190444 C34.8798543,60.2962049 34.9903975,60.2733654 35.0982,60.2505259 C35.6134593,60.6954395 36.123237,61.151316 36.4740519,61.7350938 C36.8559284,62.3700321 37.7813852,62.021958 37.7841259,61.440921 C38.0910889,60.8406988 38.2610148,60.1957111 38.4345951,59.5498099 C38.4839284,59.5397605 38.5341753,59.5287975 38.5835086,59.5187481 C39.1015086,59.9654889 39.6112864,60.4204519 39.9630148,61.0069704 C40.3448914,61.6419086 41.2703481,61.292921 41.2721753,60.7127975 C41.581879,60.1098346 41.7508914,59.4630198 41.9262988,58.8152914 C42.0066938,58.7988469 42.0861753,58.7814889 42.167484,58.7641309 C42.6873111,59.2126988 43.1998296,59.6704025 43.5533852,60.2578346 C43.9361753,60.8927728 44.8607185,60.5446988 44.8634593,59.9627481 C45.1749901,59.3552173 45.344916,58.702921 45.5203235,58.0497111 C45.5723975,58.0396617 45.6253852,58.0268716 45.6783728,58.0159086 C46.2027679,58.4681309 46.7207679,58.9285753 47.0779778,59.5214889 C47.4598543,60.1573407 48.3853111,59.8083531 48.3871383,59.2282296 C48.7041506,58.6106494 48.8749901,57.9464765 49.0531383,57.2841309 C49.095163,57.2749951 49.1335333,57.2649457 49.175558,57.2567235 C49.7090889,57.7153407 50.2389654,58.1830938 50.6016568,58.7851432 C50.9844469,59.4228222 51.9099037,59.0738346 51.9117309,58.4927975 C52.2387926,57.8560321 52.4087185,57.1699333 52.5941753,56.4856617 C52.6553852,56.4710444 52.7184222,56.4564272 52.7796321,56.4427235 C53.3332617,56.9177852 53.8878049,57.3965012 54.2651136,58.0213901 C54.6469901,58.6581556 55.5715333,58.3100815 55.5742741,57.7281309 C56.074916,56.7524272 56.2064716,55.6597852 56.5892617,54.639316 C56.6449901,54.491316 56.6367679,54.3625012 56.6047926,54.2464765 C56.603879,54.2391679 56.6066198,54.2318593 56.6057062,54.223637 C56.2749901,52.7326741 54.5583728,46.8026247 54.1198543,45.5290938 C49.7766938,32.8805753 45.4271383,20.2329704 41.0739284,7.58719259 C41.0593111,7.49492099 41.0547432,7.40264938 41.0182,7.30580988 C40.659163,6.3520321 40.0799531,4.25993333 39.5509901,3.38015556 C39.4441012,3.20018025 39.3454346,3.09785926 39.2504222,3.02842716" id="Fill-14" fill="#FFDEC1" mask="url(#mask-2)"></path>
                        </g>
                        <path d="M32.1523605,23.4358914 C40.0922864,21.2177185 40.9126815,20.9189778 48.842558,18.661521 C50.5418173,18.178237 49.8018173,15.5370765 48.1016444,16.0203605 C40.1717679,18.2778173 39.3513728,18.5774716 31.4114469,20.7938173 C29.7103605,21.2697926 30.4494469,23.9118667 32.1523605,23.4358914" id="Fill-17" fill="#FF9300"></path>
                        <path d="M34.7003358,31.1985827 C42.6676691,29.0882123 43.4917185,28.8004346 51.4490025,26.6507802 C53.1546568,26.1912494 52.4502864,23.5400395 50.7437185,24.000484 C42.7864346,26.1510519 41.9623852,26.437916 33.9959654,28.5482864 C32.2875704,29.0005086 32.9919407,31.6508049 34.7003358,31.1985827" id="Fill-19" fill="#FF9300"></path>
                        <path d="M37.2488593,38.9604519 C45.2426864,36.9597111 46.0703901,36.6819827 54.0550815,34.6401309 C55.7662173,34.2025259 55.0983901,31.5430938 53.3854272,31.9806988 C45.4016494,34.0234642 44.5739457,34.2993654 36.5801185,36.3019333 C34.866242,36.731316 35.5349827,39.3907481 37.2488593,38.9604519" id="Fill-21" fill="#FF9300"></path>
                        <path d="M39.7968346,46.7232346 C47.8180691,44.8293827 48.6494272,44.5635309 56.6606123,42.6303951 C58.3781432,42.214716 57.7468593,39.5470617 56.0275012,39.9618272 C48.016316,41.8958765 47.1840444,42.1608148 39.1637235,44.0546667 C37.4443654,44.4612099 38.0774765,47.1297778 39.7968346,46.7232346" id="Fill-23" fill="#FF9300"></path>
                        <path d="M42.3449012,54.4860173 C50.3926296,52.6999679 51.2294691,52.4459926 59.2671481,50.6197457 C60.9910741,50.2278198 60.3945062,47.5492025 58.6705802,47.942042 C50.6301605,49.7682889 49.7951481,50.0222642 41.7474198,51.8083136 C40.0225802,52.1920173 40.6191481,54.869721 42.3449012,54.4860173" id="Fill-25" fill="#FF9300"></path>
                        <path d="M55.0636741,16.7999185 C56.2896988,16.4573259 56.622242,16.3741901 57.5230321,16.1183877 C59.2232049,15.6341901 58.4832049,12.992116 56.7830321,13.4763136 C55.6693778,13.7933259 55.5588346,13.8243877 54.3227605,14.1578444 C52.615279,14.6192025 53.3607605,17.2749802 55.0636741,16.7999185" id="Fill-27" fill="#FF9300"></path>
                        <path d="M58.8272593,27.389958 C60.0578519,27.0665506 60.3922222,26.9898099 61.2966667,26.7477111 C63.0032346,26.290921 62.3052593,23.637884 60.5968642,24.0965012 C59.478642,24.395242 59.3680988,24.4244765 58.1274568,24.7387481 C56.4135802,25.1726988 57.117037,27.8385259 58.8272593,27.389958" id="Fill-29" fill="#FF9300"></path>
                        <path d="M62.5903877,37.9809111 C63.8255481,37.6766889 64.1617457,37.604516 65.0689309,37.3770346 C66.7828074,36.9467383 66.1268568,34.2827383 64.4111531,34.7148617 C63.2892765,34.9962444 63.1769062,35.0236519 61.9316963,35.3196519 C60.2123383,35.7261951 60.8737704,38.4029852 62.5903877,37.9809111" id="Fill-31" fill="#FF9300"></path>
                        <path d="M66.3536074,48.5717728 C67.5933358,48.2867358 67.9313605,48.2191309 68.8422,48.0053531 C70.5624716,47.6024642 69.9476321,44.9293284 68.2255333,45.3331309 C67.0990889,45.5980691 66.9867185,45.6227358 65.7369407,45.8995506 C64.0111877,46.2805136 64.6296815,48.9673531 66.3536074,48.5717728" id="Fill-33" fill="#FF9300"></path>
                        <path d="M28.0228864,60.8935037 C33.6414049,57.3552074 32.964442,57.4063679 38.4587136,53.9219728 C39.060763,53.6396765 39.659158,53.1792321 39.7422938,52.3451333 C39.8601457,51.174837 39.0223926,49.9268864 38.2933556,48.7794296 C38.2933556,48.7794296 38.2933556,48.778516 38.2942691,48.778516 C32.2271827,38.5016519 26.5145654,28.9647877 20.464837,18.6979728 C20.430121,18.6120963 20.3972321,18.5243926 20.3497259,18.438516 C20.0674296,17.9305654 19.8024914,17.3942938 19.4425407,16.9512074 C18.9820963,16.3308864 18.4640963,15.8814049 17.9177753,15.848516 C17.6638,15.8338988 17.4463679,15.9005901 17.2398988,15.9937753 C17.2051827,16.0029111 17.1695531,15.9956025 17.1375778,16.0166148 C17.0562691,16.0686889 16.9840963,16.1107136 16.9055284,16.1609605 C16.7922444,16.223084 16.6789605,16.286121 16.5629358,16.3391086 C16.5337012,16.3518988 16.5236519,16.3893556 16.5017259,16.4131086 C11.0622691,19.7960963 9.82619506,19.923084 4.04140494,23.555479 C3.76002222,23.7518988 3.4466642,23.9136025 3.26577531,24.2479728 C2.98713333,24.6526889 2.88755309,25.2099728 3.16071358,25.9746395 C3.43113333,26.7292568 3.92081235,27.4098741 4.33100988,28.1060222 C4.37303457,28.1781951 4.4269358,28.2275284 4.47900988,28.2841704 C10.7014049,38.2056519 16.9274543,48.123479 23.157158,58.039479 C23.2055778,58.1171333 23.2567383,58.1664667 23.3078988,58.2249358 C23.3088123,58.226763 23.3097259,58.2276765 23.3106395,58.2295037 C23.4595531,58.4843926 23.612121,58.7365407 23.771084,58.9795531 C24.1630099,59.6318494 24.5887383,60.2293309 25.0784173,60.6459235 C25.2428617,60.816763 25.4127877,60.9757259 25.5945901,61.1036272 C26.4460469,61.704763 27.3568864,61.3831827 28.0228864,60.8935037" id="Fill-35" fill="#BBD9FD"></path>
                        <path d="M19.1078963,30.344842 C17.0651309,26.6859531 18.5049333,28.9836074 14.6669827,22.9777309 C14.0082914,21.9472123 12.3894272,22.9092123 13.0271062,23.9707926 C16.8796741,30.3813852 15.4243407,27.6790148 17.4689333,31.3379037 C18.0700691,32.4150148 19.7099457,31.4228667 19.1078963,30.344842" id="Fill-37" fill="#3281EE"></path>
                        <path d="M27.1481333,36.0654074 C24.2347259,31.0982716 21.3304543,26.1229136 18.3932938,21.1694815 C17.763837,20.1069877 16.1102568,21.0781235 16.7406272,22.1406173 C19.6787012,27.094963 22.5829728,32.0675802 25.4954667,37.0365432 C26.1203556,38.1017778 27.7730222,37.1315556 27.1481333,36.0654074" id="Fill-39" fill="#3281EE"></path>
                        <path d="M26.6659457,53.8783951 C23.6456494,48.9742963 12.359279,31.2554074 9.31431605,26.3668395 C8.66201975,25.3180494 7.03127901,26.3239012 7.68448889,27.3726914 C10.7276247,32.2621728 22.0149086,49.9801481 25.0352049,54.8851605 C25.6820198,55.9366914 27.3127605,54.9299259 26.6659457,53.8783951" id="Fill-41" fill="#3281EE"></path>
                        <path d="M119.057504,28.0760568 C119.049281,28.0586988 119.051109,28.0449951 119.041973,28.027637 C118.530368,27.1076617 117.806812,26.2635136 117.540047,25.2275136 C117.355504,24.5085259 116.369751,24.5788716 116.199825,25.1343284 C115.891948,25.4568222 115.641627,25.8186 115.402269,26.1895136 C115.133677,25.7464272 114.896146,25.2905506 114.767331,24.7880815 C114.581874,24.0700074 113.596121,24.1394395 113.428022,24.6958099 C112.909109,25.2393901 112.538195,25.8834642 112.145356,26.5147481 C111.73059,25.8706741 111.303948,25.2256864 111.112096,24.4820321 C110.927553,23.763958 109.940886,23.8333901 109.772788,24.3897605 C109.267578,24.9168963 108.903059,25.5417852 108.522096,26.1566247 C108.118294,25.5317358 107.709923,24.9013654 107.524467,24.1805506 C107.33901,23.4624765 106.353257,23.5319086 106.185158,24.0891926 C105.679035,24.6154148 105.31543,25.2403037 104.934467,25.8551432 C104.530664,25.2293407 104.12138,24.599884 103.936837,23.8790691 C103.752294,23.1609951 102.765627,23.2304272 102.596615,23.7877111 C102.063084,24.3449951 101.686689,25.0109951 101.281059,25.6587235 C100.854417,24.9954642 100.406763,24.3322049 100.20943,23.5657111 C100.023973,22.847637 99.0382198,22.9170691 98.8692074,23.4734395 C98.3722198,23.9941802 98.010442,24.6071926 97.6349605,25.2128963 C97.2384667,24.5971432 96.8410593,23.9777358 96.6574296,23.267884 C96.4728864,22.5498099 95.4871333,22.619242 95.318121,23.1746988 C94.7992074,23.7173654 94.4282938,24.3623531 94.0354543,24.993637 C93.6206889,24.3486494 93.1931333,23.7036617 93.0021951,22.960921 C92.8167383,22.2428469 91.8318988,22.3113654 91.6638,22.8686494 C91.1585901,23.3966988 90.793158,24.0206741 90.4121951,24.6355136 C90.0093062,24.0097111 89.6009358,23.3793407 89.4145654,22.6594395 C89.2300222,21.9413654 88.2433556,22.0107975 88.0752568,22.5671679 C87.5700469,23.0952173 87.2055284,23.718279 86.8236519,24.3331185 C86.420763,23.7082296 86.0133062,23.0796864 85.8260222,22.357958 C85.641479,21.639884 84.6566395,21.709316 84.4885407,22.2656864 C83.9531827,22.823884 83.5767877,23.4889704 83.1702444,24.1376123 C82.7436025,23.4734395 82.2968617,22.8101802 82.0995284,22.0446 C81.9140716,21.3256123 80.9292321,21.395958 80.7602198,21.9514148 C80.0777753,22.6640074 79.647479,23.5483531 79.0901951,24.3523037 C79.0399481,24.4126 78.9960963,24.4811185 78.953158,24.5523778 C78.9358,24.5752173 78.9220963,24.599884 78.9047383,24.6227235 C78.8581457,24.6848469 78.8371333,24.7469704 78.8152074,24.810921 C78.7914543,24.8611679 78.7585654,24.9013654 78.7357259,24.9570938 C78.8709358,27.3488469 78.896516,29.7351185 78.8380469,32.1177358 C78.890121,35.9986247 78.7603926,39.867637 78.4899728,43.7302543 C78.354763,48.8901556 78.0112568,54.0445753 77.427479,59.1871185 C76.9679481,63.2306247 76.4645654,67.519884 75.764763,71.709563 C75.4705901,73.4663778 74.7945407,74.4429951 75.2129605,75.2067481 C75.6332074,76.1714889 76.2718,77.083242 76.437158,78.1393407 C76.5522691,78.8729457 77.5398494,78.8976123 77.7609358,78.3604272 C78.2387383,77.9502296 78.6178741,77.4568963 78.9951827,76.9608222 C79.1093802,76.9781802 79.2244914,76.9973654 79.3432568,77.0147235 C79.630121,77.5820568 79.8978,78.1594395 79.9973802,78.7888963 C80.1115778,79.5215877 81.1000716,79.5471679 81.321158,79.0108963 C81.8163185,78.5833407 82.2082444,78.0689951 82.5992568,77.5519086 C82.7043185,77.5701802 82.8102938,77.5884519 82.9171827,77.607637 C83.216837,78.1959827 83.5027877,78.7943778 83.6051086,79.4466741 C83.7202198,80.1793654 84.7078,80.2058593 84.9288864,79.6695877 C85.4340963,79.2347235 85.8296765,78.7094148 86.2289111,78.1841062 C86.2983432,78.1959827 86.3714296,78.2087728 86.4426889,78.2224765 C86.7496519,78.8208716 87.0429111,79.429316 87.1470593,80.0934889 C87.2621704,80.8261802 88.2497506,80.8526741 88.470837,80.3164025 C88.9806148,79.877884 89.3780222,79.3480074 89.779084,78.8190444 C89.8457753,78.830921 89.9106395,78.841884 89.9764173,78.8537605 C90.2870346,79.457637 90.5839481,80.0697358 90.6890099,80.7403037 C90.804121,81.4720815 91.7917012,81.4985753 92.0127877,80.9623037 C92.523479,80.5228716 92.9227136,79.9902543 93.3246889,79.4585506 C93.4343185,79.4786494 93.5448617,79.4987481 93.6535778,79.5179333 C93.9632815,80.1245506 94.2638494,80.7393901 94.3689111,81.4117852 C94.4840222,82.1444765 95.4716025,82.1700568 95.6936025,81.6337852 C96.2042938,81.1934395 96.604442,80.6589951 97.0082444,80.1263778 C97.0575778,80.1355136 97.1078247,80.1437358 97.1580716,80.1537852 C97.4696025,80.7622296 97.7692568,81.3761556 97.8752321,82.0512914 C97.9894296,82.7839827 98.9779235,82.809563 99.1990099,82.2723778 C99.712442,81.8311185 100.113504,81.2957605 100.519133,80.761316 C100.600442,80.7768469 100.679923,80.7905506 100.763059,80.8051679 C101.07459,81.4154395 101.376985,82.0330198 101.483874,82.7099827 C101.598985,83.4426741 102.586565,83.4691679 102.806738,82.9310691 C103.325652,82.4861556 103.728541,81.945316 104.136911,81.4063037 C104.189899,81.4163531 104.242886,81.4254889 104.295874,81.4346247 C104.611973,82.0503778 104.918022,82.6725259 105.025825,83.3567975 C105.140022,84.0894889 106.128516,84.1150691 106.349602,83.577884 C106.874911,83.1256617 107.283281,82.5738593 107.69896,82.0275383 C107.740072,82.0348469 107.779356,82.0403284 107.82138,82.0485506 C108.14296,82.6752667 108.458146,83.3074642 108.567775,84.0017852 C108.681973,84.7363037 109.670467,84.761884 109.891553,84.2237852 C110.433306,83.7569457 110.849899,83.185958 111.279281,82.622279 C111.341405,82.6323284 111.404442,82.6423778 111.466565,82.6524272 C111.800936,83.3010691 112.134393,83.9533654 112.247677,84.6741802 C112.361874,85.4068716 113.349454,85.4333654 113.571454,84.8952667 C114.401899,84.1808469 114.93543,83.2179333 115.67543,82.4167235 C115.782319,82.3006988 115.82343,82.1791926 115.838047,82.0586 C115.839874,82.0512914 115.844442,82.0458099 115.846269,82.0375877 C116.102985,80.532921 116.746146,74.3918346 116.820146,73.047958 C117.561973,59.6941556 118.297405,46.3403531 119.029183,32.9874642 C119.050195,32.8951926 119.080343,32.809316 119.083084,32.7042543 C119.110491,31.6856123 119.36264,29.529563 119.203677,28.5145753 C119.171701,28.3090198 119.118714,28.175637 119.057504,28.0760568" id="Fill-43" fill="#FFDEC1"></path>
                        <path d="M85.3304963,36.3900938 C93.5207432,37.3265136 94.3932123,37.3594025 102.588941,38.2556247 C104.345756,38.4483901 104.655459,35.7222667 102.897731,35.5295012 C94.7020025,34.633279 93.8295333,34.6013037 85.6392864,33.664884 C83.8842988,33.4638963 83.5736815,36.1891062 85.3304963,36.3900938" id="Fill-45" fill="#FF9300"></path>
                        <path d="M84.9543753,41.8234296 C93.1345728,42.8338494 94.0061284,42.8731333 102.191807,43.8442691 C103.946795,44.0516519 104.281165,41.3300963 102.524351,41.1208864 C94.3395852,40.1515778 93.467116,40.1122938 85.2878321,39.1018741 C83.533758,38.884442 83.2003012,41.6078247 84.9543753,41.8234296" id="Fill-47" fill="#FF9300"></path>
                        <path d="M84.5783457,47.257679 C92.7475802,48.3420988 93.6191358,48.3886914 101.794765,49.4329136 C103.547012,49.6558272 103.906049,46.9370123 102.151975,46.7131852 C93.9772593,45.6707901 93.1057037,45.6223704 84.9364691,44.5379506 C83.1851358,44.3068148 82.8260988,47.0256296 84.5783457,47.257679" id="Fill-49" fill="#FF9300"></path>
                        <path d="M84.202316,52.6909235 C92.3615012,53.8493432 93.2330568,53.904158 101.397723,55.0214667 C103.148143,55.2608247 103.531847,52.5447506 101.7796,52.304479 C93.6140198,51.188084 92.7433778,51.1332691 84.5841926,49.975763 C82.8346864,49.7281827 82.4518963,52.4433432 84.202316,52.6909235" id="Fill-51" fill="#FF9300"></path>
                        <path d="M83.8262864,58.1251728 C91.9745086,59.3557654 92.8460642,59.4188025 101.000681,60.6091975 C102.74836,60.8640864 103.156731,58.1516667 101.407225,57.8967778 C93.2516938,56.7072963 92.3819654,56.6433457 84.2328296,55.4127531 C82.4860642,55.149642 82.0786074,57.8620617 83.8262864,58.1251728" id="Fill-53" fill="#FF9300"></path>
                        <path d="M83.4501654,63.5584173 C91.5883383,64.8630099 92.4589802,64.9342691 100.603548,66.1977506 C102.3494,66.4681704 102.782437,63.7603185 101.034758,63.4889852 C92.8892765,62.2255037 92.0195481,62.1542444 83.8813753,60.8496519 C82.136437,60.5710099 81.7052272,63.2797753 83.4501654,63.5584173" id="Fill-55" fill="#FF9300"></path>
                        <path d="M83.0741358,68.9926667 C91.2013457,70.3703457 92.0729012,70.4489136 100.206506,71.7863951 C101.950531,72.0723457 102.407321,69.3672346 100.661469,69.081284 C92.5269506,67.7438025 91.6572222,67.664321 83.5300123,66.2875556 C81.7869012,65.9924691 81.3310247,68.6984938 83.0741358,68.9926667" id="Fill-57" fill="#FF9300"></path>
                        <path d="M109.053617,38.8748494 C110.318012,39.0182815 110.657864,39.0676148 111.588802,39.1699358 C113.345617,39.3617877 113.655321,36.6365778 111.897593,36.4447259 C110.747395,36.3177383 110.633198,36.3049481 109.362407,36.1496395 C107.60742,35.9322074 107.296802,38.6720346 109.053617,38.8748494" id="Fill-59" fill="#FF9300"></path>
                        <path d="M108.549595,50.1027506 C109.811249,50.2671951 110.150188,50.3201827 111.079299,50.437121 C112.832459,50.6563802 113.185101,47.9366519 111.430114,47.7173926 C110.281743,47.5730469 110.167546,47.5584296 108.90041,47.3821086 C107.14999,47.1400099 106.796435,49.873442 108.549595,50.1027506" id="Fill-61" fill="#FF9300"></path>
                        <path d="M108.045938,61.3306519 C109.303938,61.5142815 109.64379,61.5736642 110.57016,61.7043062 C112.319667,61.9518864 112.714333,59.2376395 110.963,58.9900593 C109.81737,58.8292691 109.703173,58.8119111 108.438778,58.6164049 C106.692012,58.3459852 106.296432,61.0748494 108.045938,61.3306519" id="Fill-63" fill="#FF9300"></path>
                        <path d="M107.541916,72.559558 C108.798089,72.7623728 109.136114,72.827237 110.060657,72.9724963 C111.805595,73.2465704 112.2432,70.5378049 110.496435,70.2637309 C109.352632,70.0846691 109.239348,70.0663975 107.977694,69.8507926 C106.234583,69.553879 105.796064,72.2754346 107.541916,72.559558" id="Fill-65" fill="#FF9300"></path>
                        <path d="M11.4700914,90.3029309 C12.6851531,90.2663877 13.7851037,89.8278691 14.7498444,89.142684 C14.8868815,89.1043136 15.0211778,89.0321407 15.1499926,88.9106346 C22.3362148,82.0496469 31.1001901,76.6074494 37.7163383,69.1361901 C38.1703877,68.622758 38.0013753,67.9512765 37.616758,67.580363 C37.9913259,66.226437 39.8120914,64.6907086 39.8641654,62.9558198 C39.9829309,58.9780914 38.3695481,54.6988815 37.2449309,50.9532025 C36.0536222,46.9827827 35.026758,42.9675975 33.3274988,39.170758 C31.3779185,34.8138938 28.8527827,30.9010296 27.9611284,26.1275728 C27.8652025,25.6132272 27.4860667,25.3766099 27.0840914,25.3464617 C26.7981407,24.8211531 26.1303136,24.5132765 25.5922148,25.0568568 C21.3796963,29.3068321 15.8379185,32.2969802 11.3960914,36.3651531 C11.1951037,36.4665605 11.0370543,36.6346593 10.9475235,36.8749309 C10.9155481,36.9434494 10.8991037,37.0101407 10.8844864,37.0795728 C10.8817457,37.1005852 10.8698691,37.1142889 10.8662148,37.1343877 C10.8643877,37.1617951 10.8616469,37.190116 10.8589062,37.2175235 C10.8561654,37.2531531 10.8452025,37.2869556 10.8470296,37.3216716 C10.4459679,41.2272272 9.76078272,45.1090296 10.0439926,49.0483877 C10.4185605,54.2557951 11.9753012,59.3115481 13.4763136,64.2832519 C15.0230049,69.4047827 17.2795481,75.134758 17.0173506,80.5568568 C16.942437,82.112684 16.5048321,83.786363 15.6826099,85.1201901 C15.1618691,85.967079 14.2629062,86.7171284 13.2305605,87.2159432 C11.9963136,87.8115975 10.5729556,88.0473012 9.37707901,87.6535481" id="Fill-67" fill="#35CE68"></path>
                        <path d="M41.8885679,12.2088123 C37.4184198,14.8490593 14.1595802,32.9626148 11.1922716,35.5252074 C11.1886173,35.5279481 11.1776543,35.554442 11.1648642,35.5855037 C10.786642,35.9756025 10.5911358,36.4378741 10.4705432,36.9750593 C10.1909877,37.9617259 10.3819259,38.9529605 10.4221235,39.9716025 C10.423037,39.9789111 10.4266914,39.9825654 10.4266914,39.9907877 C10.4330864,40.4347877 10.4440494,40.8751333 10.5198765,41.315479 C10.5299259,41.3776025 10.5609877,41.4168864 10.5801728,41.4726148 C10.7564938,42.4949111 12.4502716,42.538763 12.5644691,41.3483679 C12.5672099,41.3136519 12.5809136,41.2835037 12.5873086,41.2506148 C12.5982716,41.2332568 12.6110617,41.2177259 12.619284,41.1976272 C12.9125432,40.5855284 13.6406667,40.2940963 14.3742716,40.2502444 C16.5769136,40.723479 18.2113086,44.5221457 18.6397778,45.601084 C19.5378272,47.8558 19.8904691,50.2612568 20.3198519,52.6411333 C20.7172593,55.9884914 20.8469877,59.3340222 21.1384198,62.1332321 C21.4380741,65.0000469 21.6226173,68.9713802 22.4366173,72.6092568 C22.6357778,75.2321457 22.8596049,77.8559481 23.1592593,80.4678741 C23.6315802,81.8409852 24.1724198,83.1720716 24.7991358,84.4428617 C27.6632099,90.2495778 34.227284,94.8448864 37.9482963,88.2022444 C45.5410617,80.6496765 53.3128889,73.2862198 61.261037,66.1100469 C61.4519753,66.0954296 61.6456543,66.0406148 61.8283704,65.877084 C62.7392099,65.0740469 63.6491358,64.2710099 64.5599753,63.4688864 C64.6120494,63.4232074 64.6330617,63.3702198 64.6714321,63.3208864 C65.0405185,63.0696519 65.2643457,62.621084 65.0131111,62.1021704 L60.3629877,52.5442938 C60.1994568,52.2099235 59.9336049,52.0582691 59.6522222,52.0189852 C59.5818765,51.9047877 59.4813827,51.7997259 59.348,51.7101951 C50.7603457,45.9400222 50.0093827,37.8584914 50.4862716,28.256763 C50.4972346,28.0420716 50.4360247,27.8694049 50.3510617,27.7186642 C50.3556296,27.2399481 50.3601975,26.7694543 50.3629383,26.3446395 C50.3912593,26.2615037 50.4296296,26.1865901 50.4387654,26.0870099 C50.8169877,21.7045654 49.7225185,7.58335556 41.8885679,12.2088123" id="Fill-69" fill="#CBF7D8"></path>
                        <path d="M37.9478395,88.201879 C39.5630494,86.5939778 41.1883086,84.9952123 42.819963,83.4055827 C48.8559877,77.5239531 55.0034691,71.7592617 61.2614938,66.1096815 C61.4524321,66.0959778 61.6461111,66.0402494 61.8288272,65.8767185 C62.7396667,65.0745951 63.6495926,64.271558 64.5604321,63.4694346 C64.6115926,63.422842 64.6326049,63.3698543 64.6709753,63.3214346 C65.0400617,63.0692864 65.2648025,62.6207185 65.0126543,62.1027185 L60.3625309,52.544842 C60.1999136,52.2104716 59.9340617,52.0579037 59.652679,52.0195333 C59.5823333,51.9053358 59.4818395,51.7993605 59.3484568,51.7107432 C58.275,50.9881012 45.5917654,63.5690148 37.0187284,71.2010642 C35.9845556,72.1192123 37.3869012,78.8806198 37.9478395,88.201879" id="Fill-71" fill="#35CE68"></path>
                        <path d="M74.3889111,60.2056691 C74.2801951,60.0786815 74.1596025,59.9928049 74.0353556,59.9370765 C73.790516,59.5588543 73.351084,59.3478173 72.8540963,59.6602617 C66.5513062,63.6169778 67.2593309,51.3786568 66.2123679,49.0033481 C65.4248617,47.2200395 63.9512568,45.9373728 61.8911333,46.3685827 C60.0648864,46.7532 58.9146889,48.4625086 57.7023679,49.7223358 C55.051158,52.4822617 52.3277753,55.1745827 49.6729111,57.9317679 C45.6294049,62.1324099 41.2387383,66.1000889 37.4218,70.5017185 C37.2838494,70.6615951 37.2317753,70.8232988 37.2135037,70.979521 C36.9695778,71.2572494 37.6675531,71.1055951 37.4866642,71.4034222 C37.2655778,71.7679407 41.1154049,70.666163 41.5256025,70.5154222 C41.9358,70.3637679 42.3048864,70.330879 42.636516,70.3930025 C42.9507877,70.4542123 43.2312568,70.598558 43.4843185,70.8068543 C44.8519481,71.9424346 45.4083185,74.9883111 45.9153556,76.8849037 C45.9171827,76.9671259 45.9080469,77.0438667 45.9345407,77.1361383 C46.9888123,80.7694469 48.8424667,87.9410519 52.9380469,90.0249284 C53.6935778,90.4095457 58.2121457,89.832163 58.9338741,88.1794963 C62.7544667,82.2220395 67.9308123,76.7442123 72.0912568,71.0133235 C75.2622938,66.6454963 78.4050099,64.8877679 74.3889111,60.2056691" id="Fill-73" fill="#C2F0D1"></path>
                        <path d="M76.6750543,54.5073951 C74.490684,59.4270247 69.4870049,63.9373704 65.8811037,67.8246543 C62.7045852,71.2505802 59.3517457,74.5568272 56.4164123,78.1956173 C55.979721,78.738284 56.2665852,79.3001358 56.7462148,79.5595926 C56.776363,79.615321 56.7891531,79.6747037 56.8330049,79.7276914 C57.5574741,80.6303086 57.5556469,81.9148025 57.7392765,83.0074444 C57.9155975,84.0626296 58.2837704,85.1771975 57.9484864,86.2351235 C57.8781407,86.4571235 57.9000667,86.651716 57.9539679,86.828037 C57.3829802,87.3862346 56.7992025,87.9279877 56.1944123,88.4377654 C55.1995235,89.2727778 56.5315235,90.7911481 57.5282395,89.9524815 C62.3163136,85.9281605 65.9578444,80.3397901 70.0634741,75.6531235 C72.982363,72.3249506 76.5142642,69.1502593 79.1188815,65.4657901 C80.1128568,64.5622593 80.9332519,63.5801605 81.0867333,62.4993951 C81.2840667,62.305716 81.390042,62.0279877 81.2731037,61.6625556 C80.4892519,59.202284 79.5345605,56.7785556 78.5378444,54.3959383 C78.1714988,53.5207284 77.0030296,53.7692222 76.6750543,54.5073951" id="Fill-75" fill="#E1FFE8"></path>
                        <path d="M56.5674272,79.8405185 C57.4627358,81.7179259 57.8921185,83.5761481 57.5577481,85.6435802 C57.0470568,88.8063951 53.9235259,89.8414815 51.7391556,87.4880988 C49.2240691,84.7775062 48.072958,80.8619012 47.0661926,77.3884691 C47.0561432,77.319037 47.0634519,77.2523457 47.0387852,77.1792593 C46.0521185,74.2530617 46.5938716,71.0473086 43.3771556,69.4257037 C41.430316,68.4454321 39.1719457,69.0931605 37.6334765,70.5411852 C32.1867111,75.6599753 41.2850568,84.2476296 34.5291309,89.198321 C33.4830815,89.9657284 34.8214765,91.4795309 35.8638716,90.7148642 C39.1454519,88.310321 39.6396988,85.1301481 39.0285136,81.3059012 C38.5854272,78.5377531 36.6678222,73.9077284 39.2514272,71.7882222 C43.2839704,68.4810617 44.2076,74.3343704 45.0069827,77.3263457 C45.0097235,77.4085679 44.9996741,77.4853086 45.0270815,77.5775802 C46.2759457,81.8796296 48.6439457,91.1469877 54.5319704,91.0446667 C60.6657481,90.9368642 60.2226617,82.8114815 58.3836247,78.9570864 C57.8236,77.784963 56.0074025,78.6674815 56.5674272,79.8405185" id="Fill-77" fill="#E1FFE8"></path>
                        <path d="M33.785842,52.4696543 C31.2935951,54.3580247 31.3995704,54.3881728 28.8817432,56.2454815 C27.8366074,57.014716 29.1731753,58.5303457 30.2137432,57.7611111 C32.7333975,55.9065432 32.6255951,55.8763951 35.117842,53.9871111 C36.1520148,53.2023457 34.8172741,51.6858025 33.785842,52.4696543" id="Fill-79" fill="#35CE68"></path>
                        <path d="M34.9488296,46.2119951 C32.636558,48.3424642 30.0054469,50.2673778 27.6009037,52.3137975 C26.6124099,53.1552049 27.9444099,54.6744889 28.9356444,53.8294272 C31.3392741,51.7830074 33.9712988,49.8580938 36.2826568,47.7285383 C37.2364346,46.8496741 35.9080889,45.328563 34.9488296,46.2119951" id="Fill-81" fill="#35CE68"></path>
                        <path d="M40.2540815,55.8563877 C36.9222543,58.752437 35.791242,59.446758 30.4230444,64.6998444 C29.5021556,65.6015481 30.8451185,67.062363 31.801637,66.1761901 C37.5827728,60.8207827 38.2990198,60.2287827 41.6317605,57.3318198 C42.6129457,56.480363 41.2361802,55.0021901 40.2540815,55.8563877" id="Fill-83" fill="#35CE68"></path>
                        <path d="M38.8310889,62.1621926 C35.4983481,65.058242 37.557558,63.0785136 32.1902741,68.3306864 C31.2693852,69.2314765 32.6123481,70.6941185 33.5670395,69.8070321 C39.3500025,64.4534519 36.8760272,66.5345877 40.2087679,63.6385383 C41.1899531,62.7870815 39.8141012,61.3089086 38.8310889,62.1621926" id="Fill-85" fill="#35CE68"></path>
                        <path d="M32.6193827,37.4732346 C29.0701235,40.0997778 31.2791605,38.2872346 25.5153827,43.102716 C24.5259753,43.9285926 25.7501728,45.4908148 26.7742963,44.6841235 C32.9564938,39.7964691 30.3281235,41.679358 33.8773827,39.0537284 C34.9225185,38.2826667 33.6654321,36.7003457 32.6193827,37.4732346" id="Fill-87" fill="#35CE68"></path>
                        <path d="M37.9589852,27.8529605 C33.1572074,31.5639235 28.348121,35.2657506 23.5646148,38.9986395 C22.5395778,39.7989358 23.7756519,41.3958741 24.8006889,40.5946642 C29.5851086,36.8608617 34.3932815,33.1599481 39.1950593,29.4489852 C40.2246642,28.6532568 38.9895037,27.0572321 37.9589852,27.8529605" id="Fill-89" fill="#35CE68"></path>
                        <path d="M42.3364049,28.2749432 C42.3272691,28.2511901 42.3062568,28.1141531 42.2724543,27.8610914 L42.1299358,27.9579309 C42.0340099,28.0237086 41.8978864,27.9807704 41.7197383,27.8282025 C41.539763,27.6756346 41.4237383,27.5239802 41.3661827,27.3714123 C41.2994914,27.1896099 41.585442,26.8378815 42.2276889,26.3180543 C42.2834173,25.4510667 42.4707012,24.6425481 42.7931951,23.8970667 C43.1147753,23.149758 43.5505531,22.5879062 44.1005284,22.2142519 C44.2786765,22.0909185 44.4942815,22.1000543 44.7464296,22.2425728 C44.9967506,22.3832642 45.1694173,22.5824247 45.263516,22.8373136 C45.3082815,22.9597333 45.3174173,23.1049926 45.291837,23.2740049 C45.2653432,23.4439309 45.2150963,23.5544741 45.1420099,23.6056346 C45.120084,23.6193383 45.0479111,23.5754864 44.9245778,23.474079 C44.7994173,23.3708444 44.693442,23.3498321 44.6029975,23.4128691 C44.375516,23.5663506 44.164479,23.8221531 43.9698864,24.1802765 C43.7743802,24.5365728 43.6154173,24.9412889 43.4902568,25.3898568 C44.1398123,24.9467704 44.6678617,24.6270173 45.0744049,24.4269432 C45.479121,24.2259556 45.718479,24.2241284 45.7906519,24.4178074 C45.8527753,24.5886469 45.6106765,24.9312395 45.0652691,25.4474123 C44.5189481,25.9663259 44.0283556,26.3856593 43.5925778,26.7118074 C43.4116889,26.8662025 43.2974914,26.9593877 43.2499852,26.991363 C43.248158,27.0763259 43.2572938,27.2261531 43.2773926,27.4408444 C43.9708,26.8479309 44.6148741,26.3463753 45.2132691,25.9407457 C45.809837,25.5342025 46.1442074,25.4291407 46.2154667,25.6228198 C46.3314914,25.933437 45.5037877,26.9073136 43.7350963,28.5426222 C43.9863309,28.8441037 44.3033432,28.8642025 44.6897877,28.6020049 C45.1748988,28.2703753 45.6810222,27.759684 46.2054173,27.0681037 C46.384479,26.8378815 46.5114667,26.6999309 46.5827259,26.6515111 C46.6530716,26.6030914 46.7215901,26.5966963 46.7837136,26.6341531 C46.8476642,26.6716099 46.8951704,26.7328198 46.9253185,26.8168691 C46.9910963,26.9931901 46.9381086,27.2764 46.7672691,27.6738074 C46.595516,28.0657333 46.3515901,28.471363 46.0345778,28.8843012 C45.7175654,29.2972395 45.4032938,29.609684 45.091763,29.8216346 C44.0521086,30.5314864 43.2664296,30.4026716 42.7374667,29.4388444 C42.6707753,29.4918321 42.5565778,29.5740543 42.3930469,29.6845975 C42.308084,29.7421531 42.1765284,29.6964741 41.9974667,29.5439062 C41.8184049,29.3913383 41.7023802,29.2424247 41.6493926,29.0971654 C41.6165037,29.013116 41.8467259,28.7381284 42.3364049,28.2749432" id="Fill-91" fill="#35CE68"></path>
                        <path d="M43.539042,42.2856099 C43.5299062,42.2618568 43.5088938,42.1239062 43.4750914,41.8735852 L43.3334864,41.9704247 C43.2375605,42.0352889 43.1005235,41.9905235 42.9214617,41.8379556 C42.7433136,41.6872148 42.6254617,41.5346469 42.5697333,41.3829926 C42.5021284,41.2011901 42.7889926,40.8494617 43.4303259,40.3296346 C43.4851407,39.4626469 43.6751654,38.655042 43.9958321,37.9077333 C44.3183259,37.1613383 44.7541037,36.5985728 45.3031654,36.2249185 C45.4822272,36.1024988 45.6978321,36.1125481 45.9481531,36.2523259 C46.1993877,36.395758 46.3720543,36.5940049 46.4670667,36.8479802 C46.5118321,36.9704 46.5209679,37.1156593 46.4944741,37.2855852 C46.4679802,37.4545975 46.4177333,37.5651407 46.3437333,37.6163012 C46.322721,37.6300049 46.2505481,37.5861531 46.1272148,37.4847457 C46.0020543,37.3824247 45.896079,37.3614123 45.8056346,37.4235358 C45.5790667,37.5779309 45.367116,37.8328198 45.1725235,38.1918568 C44.9770173,38.5472395 44.8171407,38.951042 44.6938074,39.401437 C45.343363,38.9592642 45.8714123,38.6385975 46.277042,38.4385235 C46.681758,38.2366222 46.9202025,38.2347951 46.9923753,38.4293877 C47.0563259,38.6002272 46.8133136,38.9428198 46.2679062,39.4589926 C45.7206716,39.976079 45.2309926,40.3963259 44.7952148,40.7224741 C44.6152395,40.8777827 44.5001284,40.9700543 44.4526222,41.0029432 C44.4517086,41.0869926 44.4608444,41.2368198 44.4800296,41.4505975 C45.173437,40.8585975 45.8184247,40.3588691 46.4149926,39.9514123 C47.0124741,39.5448691 47.3468444,39.440721 47.4181037,39.6344 C47.5332148,39.9441037 46.7064247,40.9179802 44.9386469,42.555116 C45.1889679,42.855684 45.5068938,42.8757827 45.8933383,42.6126716 C46.3775358,42.281042 46.8845728,41.7712642 47.4080543,41.079684 C47.5889432,40.8503753 47.7141037,40.7115111 47.7844494,40.6630914 C47.8566222,40.6146716 47.9233136,40.6082765 47.9863506,40.6448198 C48.0493877,40.6822765 48.0978074,40.7434864 48.1297827,40.8275358 C48.1946469,41.0047704 48.1416593,41.2888938 47.9699062,41.6835605 C47.7981531,42.0773136 47.5533136,42.481116 47.2372148,42.8949679 C46.9202025,43.3079062 46.6059309,43.6212642 46.2953136,43.8323012 C45.2538321,44.5412395 44.4699802,44.4133383 43.9410173,43.4504247 C43.8743259,43.5034123 43.7592148,43.5856346 43.595684,43.6961778 C43.5116346,43.7546469 43.3791654,43.7071407 43.2001037,43.5554864 C43.0219556,43.4029185 42.9050173,43.2530914 42.8520296,43.1078321 C42.8191407,43.0237827 43.0484494,42.7487951 43.539042,42.2856099" id="Fill-93" fill="#35CE68"></path>
                        <path d="M46.5822691,53.1557531 C46.5722198,53.1310864 46.552121,52.9940494 46.5183185,52.7428148 L46.3758,52.8405679 C46.2807877,52.9054321 46.1446642,52.8615802 45.9646889,52.7080988 C45.7856272,52.557358 45.6686889,52.4047901 45.6129605,52.2540494 C45.5453556,52.0713333 45.8313062,51.7196049 46.4726395,51.1988642 C46.5283679,50.3327901 46.7165654,49.5251852 47.0390593,48.7778765 C47.3615531,48.0305679 47.7964173,47.468716 48.3463926,47.0941481 C48.5263679,46.972642 48.7410593,46.9826914 48.9913802,47.1224691 C49.2426148,47.2659012 49.4143679,47.4641481 49.5102938,47.719037 C49.5541457,47.8405432 49.5641951,47.9858025 49.5377012,48.1548148 C49.5112074,48.3256543 49.4609605,48.435284 49.3869605,48.4864444 C49.3659481,48.5001481 49.2928617,48.4562963 49.170442,48.3548889 C49.0452815,48.2525679 48.9393062,48.2324691 48.8479481,48.2927654 C48.6222938,48.4489877 48.4112568,48.7038765 48.2166642,49.0610864 C48.021158,49.4182963 47.8603679,49.8220988 47.736121,50.2715802 C48.3865901,49.8294074 48.9137259,49.5078272 49.3193556,49.3077531 C49.7249852,49.1085926 49.9634296,49.1049383 50.0356025,49.2995309 C50.0986395,49.4703704 49.8574543,49.8138765 49.3111333,50.3300494 C48.7648123,50.8462222 48.2733062,51.2673827 47.8393556,51.5935309 C47.6575531,51.7479259 47.542442,51.8401975 47.4949358,51.8721728 C47.4940222,51.9571358 47.503158,52.106963 47.5232568,52.3216543 C48.2166642,51.7287407 48.8625654,51.2299259 49.4582198,50.8215556 C50.0547877,50.4150123 50.3900716,50.3108642 50.4622444,50.5045432 C50.5773556,50.8142469 49.7496519,51.7872099 47.9818741,53.4252593 C48.2312815,53.7249136 48.5492074,53.7450123 48.9356519,53.4819012 C49.4216765,53.1520988 49.9268864,52.6414074 50.4512815,51.9498272 C50.6312568,51.7205185 50.7573309,51.5807407 50.8276765,51.532321 C50.8998494,51.4839012 50.9674543,51.4775062 51.0286642,51.514963 C51.0926148,51.5515062 51.140121,51.612716 51.1720963,51.6985926 C51.2369605,51.874 51.1848864,52.1599506 51.0131333,52.5537037 C50.8413802,52.9465432 50.5965407,53.3512593 50.280442,53.7651111 C49.9643432,54.1780494 49.6500716,54.4914074 49.3385407,54.703358 C48.2970593,55.4113827 47.5132074,55.2843951 46.9833309,54.3196543 C46.9175531,54.3735556 46.8015284,54.4548642 46.6389111,54.5672346 C46.5548617,54.6247901 46.421479,54.577284 46.2433309,54.4256296 C46.0651827,54.2730617 45.9482444,54.1232346 45.8943432,53.9779753 C45.8632815,53.8939259 46.0916765,53.6198519 46.5822691,53.1557531" id="Fill-95" fill="#35CE68"></path>
                        <path d="M111.450486,59.0779457 C111.793993,52.4462667 111.445919,53.0300444 111.762931,46.5317481 C111.877128,45.8767111 111.846067,45.1230074 111.212042,44.5739457 C110.323128,43.8037975 108.821202,43.7699951 107.462709,43.7051309 C107.462709,43.7051309 107.462709,43.7051309 107.462709,43.7042173 C95.5669802,42.744958 84.480684,41.9218222 72.6041407,40.9552543 C72.5127827,40.9333284 72.4232519,40.9095753 72.3254988,40.8995259 C71.7472025,40.8364889 71.156116,40.7451309 70.5869556,40.7844148 C69.8140667,40.8026864 69.1489802,40.9680444 68.8073012,41.3956 C68.6483383,41.5938469 68.5779926,41.811279 68.5341407,42.033279 C68.5231778,42.0670815 68.496684,42.0917481 68.4948568,42.1301185 C68.4902889,42.226958 68.4848074,42.3100938 68.4793259,42.403279 C68.4656222,42.5320938 68.4510049,42.6599951 68.4272519,42.7860691 C68.4217704,42.8171309 68.446437,42.8463654 68.4528321,42.8783407 C68.0855728,49.2734025 67.478042,50.3569086 67.1153506,57.1786123 C67.114437,57.5212049 67.0660173,57.8711062 67.2350296,58.210958 C67.4058691,58.672316 67.8032765,59.0742914 68.5862148,59.2908099 C69.3591037,59.5055012 70.1968568,59.4963654 71.0026346,59.5621432 C71.0848568,59.5694519 71.1579432,59.553921 71.2328568,59.5438716 C82.9275975,60.1705877 94.6214247,60.7936494 106.315252,61.4121432 C106.40661,61.4176247 106.476042,61.4030074 106.553696,61.3956988 L106.559178,61.3956988 C106.853351,61.4203654 107.147523,61.4413778 107.437128,61.4514272 C108.196314,61.506242 108.930832,61.5025877 109.552067,61.3427111 C109.786857,61.3061679 110.014338,61.2595753 110.224462,61.1846617 C111.205647,60.8338469 111.467844,59.9047358 111.450486,59.0779457" id="Fill-97" fill="#BBD9FD"></path>
                        <path d="M81.3429012,48.7716642 C77.1751481,48.3340593 79.883,48.4811457 72.761642,48.1586519 C71.5410988,48.103837 71.3958395,49.9812444 72.6300864,50.0716889 C80.0894691,50.6143556 77.042679,50.2470963 81.2104321,50.6837877 C82.4373704,50.8116889 82.5707531,48.900479 81.3429012,48.7716642" id="Fill-99" fill="#3281EE"></path>
                        <path d="M90.6504568,45.4938296 C84.9113457,45.0142 79.1722346,44.5236074 73.4303827,44.0713852 C72.1997901,43.9745457 72.0408272,45.884842 73.2732469,45.9816815 C79.0150988,46.4329901 84.7532963,46.9226691 90.493321,47.4041259 C91.723,47.5064469 91.881963,45.5961506 90.6504568,45.4938296" id="Fill-101" fill="#3281EE"></path>
                        <path d="M104.934467,56.1471802 C99.1862198,55.790884 78.2003679,54.8133531 72.4502938,54.4862914 C71.2178741,54.4150321 71.1000222,56.3280691 72.3333556,56.3984148 C78.0834296,56.7263901 99.0692815,57.703921 104.818442,58.0602173 C106.050862,58.136958 106.1678,56.223921 104.934467,56.1471802" id="Fill-103" fill="#3281EE"></path>
                        <path d="M54.9070864,82.068284 C61.1450123,79.7925556 60.4717037,79.6993704 66.5771605,77.4510494 C67.2248889,77.3003086 67.9064198,76.9778148 68.1640494,76.1793457 C68.5249136,75.0602099 67.9685432,73.6642593 67.4980494,72.3879877 C67.4980494,72.3879877 67.4980494,72.3879877 67.498963,72.3870741 C63.731358,61.0641605 60.1556049,50.5378889 56.4026173,39.2277654 C56.388,39.1364074 56.3733827,39.0441358 56.3450617,38.950037 C56.176963,38.3927531 56.0298765,37.8135432 55.7722469,37.304679 C55.4524938,36.6003086 55.0404691,36.0530741 54.5133333,35.9059877 C54.2684938,35.8374691 54.0410123,35.8566543 53.8199259,35.9041605 C53.7842963,35.9069012 53.7504938,35.892284 53.7148642,35.9059877 C53.6244198,35.9388765 53.5458519,35.966284 53.4581481,35.9982593 C53.3339012,36.0348025 53.2096543,36.0713457 53.0844938,36.1005802 C53.0543457,36.1060617 53.0369877,36.1416914 53.0104938,36.1590494 C46.9808642,38.3205802 45.7457037,38.1853704 39.3250617,40.5186543 C39.008963,40.6511235 38.6681975,40.7433951 38.4215309,41.0311728 C38.0634074,41.3691975 37.848716,41.8917654 37.9556049,42.6975432 C38.0606667,43.492358 38.3959506,44.2597654 38.6499259,45.0271728 C38.6755062,45.1066543 38.7184444,45.1669506 38.7577284,45.2327284 C42.7509877,56.2413704 46.7497284,67.2481852 50.7521235,78.2540864 C50.7822716,78.339963 50.8224691,78.3984321 50.8590123,78.4678642 C50.8599259,78.4687778 50.8608395,78.4706049 50.8617531,78.4715185 C50.9531111,78.7519877 51.049037,79.0315432 51.1540988,79.3028765 C51.3998519,80.0227778 51.6903704,80.697 52.0804691,81.2058642 C52.204716,81.4077654 52.3380988,81.5987037 52.4888395,81.7631481 C53.195037,82.5287284 54.1524691,82.4072222 54.9070864,82.068284" id="Fill-105" fill="#3281EE"></path>
                        <path d="M52.6244148,50.3275827 C51.3974765,46.3197062 52.3211062,48.8695086 49.8343407,42.1894099 C49.4076988,41.0437802 47.622563,41.6440025 48.0217975,42.8152123 C50.4382173,49.8936321 49.5849333,46.9464222 50.8127852,50.9533852 C51.1736494,52.1328173 52.9861926,51.5079284 52.6244148,50.3275827" id="Fill-107" fill="#3281EE"></path>
                        <path d="M59.2795728,57.6130198 C57.4779926,52.1425012 55.6864617,46.669242 53.8574741,41.2078593 C53.4655481,40.0366494 51.6456963,40.6368716 52.0376222,41.8089951 C53.8666099,47.2703778 55.6590543,52.743637 57.459721,58.2141556 C57.8461654,59.3871926 59.6660173,58.7860568 59.2795728,57.6130198" id="Fill-109" fill="#3281EE"></path>
                        <path d="M55.0573704,74.9246346 C53.1379383,69.4952272 45.8347778,49.7966099 43.8879383,44.3763383 C43.4713457,43.2142642 41.6651975,43.8528568 42.0827037,45.016758 C44.0286296,50.4370296 51.3317901,70.1347333 53.2512222,75.5650543 C53.6623333,76.7298691 55.4684815,76.0894494 55.0573704,74.9246346" id="Fill-111" fill="#3281EE"></path>
                        <path d="M70.509758,79.3640864 C76.5722765,82.0719383 76.1538568,81.5374938 82.1021778,84.1722593 C82.6722519,84.5148519 83.3866716,84.7569506 84.1266716,84.3631975 C85.1654123,83.8113951 85.7373136,82.4218395 86.2872889,81.1784568 C86.2872889,81.1784568 86.2882025,81.1775432 86.2882025,81.1784568 C91.4654617,70.4265309 96.2252148,60.3798889 101.403388,49.6471481 C101.457289,49.5704074 101.51119,49.4945802 101.555956,49.4077901 C101.821807,48.8907037 102.121462,48.3717901 102.28956,47.8263827 C102.549931,47.0991728 102.635807,46.4185556 102.359906,45.9471481 C102.231091,45.7278889 102.05477,45.5826296 101.862919,45.4629506 C101.835511,45.4391975 101.820894,45.4063086 101.786178,45.3907778 C101.698474,45.3524074 101.622647,45.3158642 101.53677,45.2774938 C101.422573,45.2181111 101.307462,45.1587284 101.198746,45.0911235 C101.172252,45.074679 101.135709,45.0874691 101.103733,45.0829012 C95.2705235,42.4371728 94.4775358,41.4797407 88.2441778,38.6860123 C87.9244247,38.5617654 87.6165481,38.3900123 87.2383259,38.4247284 C86.7459062,38.4192469 86.2279062,38.6449012 85.7437086,39.2981111 C85.2659062,39.9412716 84.9726469,40.726037 84.6209185,41.4532469 C84.5843753,41.5281605 84.5734123,41.6012469 84.5551407,41.6752469 C79.759758,52.3595679 74.9680296,63.045716 70.1808691,73.7327778 C70.1434123,73.8159136 70.1315358,73.8862593 70.1105235,73.9611728 C70.1096099,73.963 70.1096099,73.9648272 70.1086963,73.9657407 C69.9789679,74.2315926 69.8538074,74.498358 69.7405235,74.766037 C69.4152889,75.453963 69.1549185,76.1400617 69.0809185,76.7777407 C69.029758,77.0088765 68.9913877,77.2390988 68.9859062,77.4610988 C68.9603259,78.5034938 69.7323012,79.0817901 70.509758,79.3640864" id="Fill-113" fill="#FF8E8E"></path>
                        <path d="M90.9649111,54.985563 C92.8733802,51.2554148 91.7615531,53.7284765 94.6256272,47.2009457 C95.1171333,46.0818099 93.4178741,45.269637 92.8889111,46.3896864 C89.6968617,53.152921 91.1357506,50.4423284 89.2281951,54.1743037 C88.6672568,55.2715136 90.4030593,56.0855136 90.9649111,54.985563" id="Fill-115" fill="#F52D2D"></path>
                        <path d="M90.6718346,64.8493975 C93.1860074,59.6675704 95.7102296,54.4903111 98.1979086,49.2966074 C98.7323531,48.1838667 97.0075136,47.3479407 96.4730691,48.4615951 C93.9844765,53.6552988 91.4611679,58.832558 88.9460815,64.0143852 C88.4070691,65.1262123 90.1328222,65.9612247 90.6718346,64.8493975" id="Fill-117" fill="#FF8E8E"></path>
                        <path d="M75.5901778,74.3403086 C77.9919802,69.1054938 86.459042,49.8791975 88.8352642,44.6315926 C89.345042,43.5078889 87.6028444,42.7094198 87.0921531,43.8349506 C84.7168444,49.081642 76.2488691,68.3070247 73.8470667,73.5427531 C73.3318074,74.6646296 75.0749185,75.4630988 75.5901778,74.3403086" id="Fill-119" fill="#F52D2D"></path>
                        <path d="M87.4872765,67.2966049 C86.7591531,62.7771235 86.3270296,58.2740864 85.9195728,53.6897407 C85.5532272,50.2756914 85.3019926,46.8726049 85.1649556,43.4786543 C85.0270049,41.3829012 84.8981901,39.2551728 84.9749309,37.1530247 C84.8497704,36.8268765 84.6195481,36.553716 84.3208074,36.3737407 C84.106116,36.2385309 83.8585358,36.1645309 83.6045605,36.1608765 L83.5068074,36.1325556 L83.2080667,36.1846296 L82.785079,36.2357901 C75.8829802,37.5312469 59.0721901,39.1555926 51.7123877,40.5625062 C51.3232025,40.6145802 50.9522889,40.7589259 50.6307086,40.9845802 C50.0688568,41.3984321 49.7262642,42.0470741 49.6997704,42.7450494 C49.6687086,43.6485802 49.707079,44.5539383 49.8157951,45.4538148 C49.8313259,45.5387778 49.8532519,45.6219136 49.8824864,45.7032222 C51.1002889,58.7217407 52.3729062,71.6964074 53.6985111,84.6290494 C53.6692765,84.7268025 53.7368815,84.7998889 53.7451037,84.8912469 C53.7715975,85.2173951 53.7990049,85.5444568 53.8419432,85.8760864 C53.8748321,86.6526296 54.0356222,87.4182099 54.3188321,88.142679 C54.3818691,88.3856914 54.4723136,88.6204815 54.5892519,88.8424815 C55.120042,89.6628765 56.1688321,89.9744074 57.0623136,89.5788272 C64.228437,88.1673457 80.406116,84.2636173 87.3913506,82.8694938 C88.2245358,82.871321 88.9937704,82.4236667 89.4039679,81.6973704 C89.7282889,81.067 89.8881654,80.366284 89.8689802,79.6573457 C88.8375481,75.5864321 88.0418198,71.4597901 87.4872765,67.2966049" id="Fill-121" fill="#B7F6F7"></path>
                        <path d="M69.4172988,56.0624 C65.7565827,56.939437 61.9414716,57.3816099 58.1692988,58.1554123 C57.5170025,58.293363 57.1004099,58.9356099 57.2392741,59.5869926 C57.3781383,60.2392889 58.018558,60.6558815 58.6717679,60.5179309 C62.4092247,59.8583259 66.2937679,59.2416593 69.9188543,58.4258321 C71.4436198,58.0631407 70.9466321,55.6850914 69.4172988,56.0624" id="Fill-123" fill="#2BD1D4"></path>
                        <path d="M68.5795457,51.3152543 C64.985521,51.8140691 61.4262123,52.5294025 57.9189778,53.4585136 C57.2639407,53.5909827 56.8391259,54.2304889 56.9725086,54.8855259 C57.1049778,55.5414765 57.744484,55.9653778 58.399521,55.8329086 C67.6787556,53.9874765 63.8417185,54.5648593 69.0600889,53.6896494 C70.6040395,53.440242 70.108879,51.1151802 68.5795457,51.3152543" id="Fill-125" fill="#2BD1D4"></path>
                        <path d="M78.7106025,44.6409111 C71.5435654,46.051479 64.4039358,47.3113062 57.2524296,48.6734543 C56.607442,48.8735284 56.2465778,49.5587136 56.4466519,50.2027877 C56.6156642,50.7500222 57.1418864,51.1044914 57.7119605,51.0588123 C64.8616395,49.6436765 72.0067506,48.3674049 79.1536889,47.0207877 C79.8114667,46.8992815 80.2445037,46.2661704 80.122084,45.6102198 C80.0005778,44.952442 79.3674667,44.5175778 78.7106025,44.6409111" id="Fill-127" fill="#2BD1D4"></path>
                        <path d="M6.04699707,46.1173275 L65.0330272,80.2624691 L57.7472247,62.6209012 C57.2712494,61.513642 56.4435457,60.5936667 55.3929284,60.0044074 L2.7277679,30.4537407 C1.20300247,29.5968025 -0.537367901,31.1681605 0.157866667,32.773321 L6.04699707,46.1173275 Z" id="Fill-129" fill="#EDA25D"></path>
                        <path d="M74.6283605,61.876242 C73.6636198,62.4271309 72.8889037,63.2584889 72.4065333,64.2606864 L65.0330272,80.2624691 L124.024658,45.9886654 L131.106805,33.5461185 C132.018558,31.9299951 130.221546,30.1412049 128.60999,31.0611802 L74.6283605,61.876242 Z" id="Fill-131" fill="#E09353"></path>
                        <path d="M61.3467309,146.10962 C62.486879,146.767398 63.7604099,147.092632 65.0330272,147.087056 L65.0330272,79.5854469 L6.00476074,45.4432553 L6.00476074,109.875329 C6.00476074,112.487255 7.39797062,114.899107 9.65908173,116.204613 L61.3467309,146.10962 Z" id="Fill-133" fill="#F7B763"></path>
                        <path d="M65.0332099,147.085872 C66.2839012,147.08039 67.5345926,146.756983 68.6555556,146.110168 L120.309745,116.343773 C122.57177,115.039181 123.964066,112.626415 123.964066,110.015403 L124.028931,45.5824154 L65.0332099,79.5850815 L65.0332099,147.085872 Z" id="Fill-135" fill="#EDA25D"></path>
                        <path d="M78.0837951,100.001681 C76.8385852,100.715188 76.114116,102.229904 76.1086346,104.570496 L76.0867086,113.690768 C76.0812272,116.03136 76.8002148,116.719286 78.0673506,115.99299 C79.8159432,114.990793 79.9301407,112.828348 79.9986593,111.447928 C80.0671778,110.137854 80.8108321,109.367706 81.6851284,108.866151 C82.8654741,108.190101 83.4108815,108.357286 83.4054,110.423805 C83.394437,115.000842 81.0291778,118.969435 77.9029062,120.760965 C75.0397457,122.402669 72.6635235,121.56583 72.6781407,115.644916 L72.6991531,106.525558 C72.7137704,100.604644 75.1009556,97.0362 77.964116,95.3944963 C81.0894741,93.6029654 83.4437704,94.7294099 83.4328074,99.0990642 C83.4282395,101.164669 82.8800914,101.959484 81.7225852,102.623657 C80.804437,103.148965 80.0626099,103.197385 80.0214988,101.984151 C80.0014,101.100719 79.9411037,98.9364469 78.0837951,100.001681" id="Fill-137" fill="#3281EE"></path>
                        <path d="M92.3036716,95.2856889 C92.3091531,92.9103802 91.5691531,92.2699605 90.3449556,92.9715901 C89.1216716,93.6723062 88.398116,95.1532198 88.391721,97.5285284 L88.3697951,106.6488 C88.3643136,109.024109 89.0833012,109.678232 90.3065852,108.976602 C91.5307827,108.274973 92.2762642,106.782183 92.2817457,104.406874 L92.3036716,95.2856889 Z M84.9612272,108.603862 L84.9831531,99.4826765 C84.9968568,93.561763 87.3411037,90.0188988 90.3568321,88.2913185 C93.3725605,86.5609975 95.7277704,87.4115407 95.7131531,93.3315407 L95.6912272,102.451812 C95.6775235,108.371812 93.3122642,111.927467 90.2956222,113.656874 C87.2798938,115.385368 84.9475235,114.522948 84.9612272,108.603862 Z" id="Fill-139" fill="#3281EE"></path>
                        <path d="M101.105286,102.578343 L107.04904,99.1716025 C107.705904,98.7952074 108.073163,99.821158 108.071336,100.922936 C108.068595,102.024714 107.694027,103.476393 107.038077,103.852788 L97.7286938,109.18901 C97.0298049,109.590985 96.7465951,109.167998 96.7484222,108.342121 C96.7493358,107.792146 96.8827185,107.027479 97.1248173,106.236319 L103.328941,85.5291086 L98.2585704,88.436121 C97.6035333,88.8106889 97.2344469,87.9236025 97.2371877,86.6838741 C97.2399284,85.5482938 97.5487185,84.1678741 98.2695333,83.7540222 L106.70462,78.918442 C107.36057,78.5420469 107.687632,78.9394543 107.685805,79.7653309 C107.683978,80.3162198 107.550595,81.0452568 107.30941,81.8720469 L101.105286,102.578343 Z" id="Fill-141" fill="#3281EE"></path>
                        <path d="M113.03098,90.1396741 C113.031894,89.9341185 112.987128,89.7870321 112.94419,89.7075506 L108.448462,80.4968346 C108.406437,80.382637 108.406437,80.2456 108.406437,80.1423654 C108.409178,78.8697481 109.788684,77.1503901 110.727844,76.6113778 C111.275079,76.2989333 111.470585,76.5309827 111.70903,77.046242 L114.746684,84.139279 L117.807178,73.550884 C118.026437,72.7716 118.245696,72.3029333 118.792017,71.9895753 C119.731178,71.450563 121.106116,71.5903407 121.102462,72.8638716 C121.102462,72.9671062 121.102462,73.1050568 121.05861,73.2676741 L116.528165,87.6538222 C116.484314,87.782637 116.439548,87.9799704 116.439548,88.1855259 L116.418536,96.8243407 C116.416709,97.9261185 115.562511,98.9657728 114.711054,99.4536247 C113.85777,99.9423901 113.008141,99.8802667 113.010881,98.7794025 L113.03098,90.1396741 Z" id="Fill-143" fill="#3281EE"></path>
                        <path d="M55.8652494,114.64756 C55.6688296,111.525857 54.5962864,108.146523 52.9682864,104.970005 C51.1968543,101.515758 48.6433975,98.1026222 45.9273235,96.2343506 C45.3974469,90.2239062 42.2017432,83.431437 37.5854222,79.2499802 C36.6992494,78.445116 35.8021136,77.7782025 34.9150272,77.2410173 L34.9150272,77.2382765 C34.9104593,77.2364494 34.9068049,77.2346222 34.902237,77.2318815 C34.8976691,77.2300543 34.8931012,77.2264 34.8894469,77.2236593 L34.8894469,77.2264 C34.0014469,76.7659556 33.1061383,76.4270173 32.2190519,76.2351654 C27.6027309,75.2302272 24.4061136,78.4314123 23.8771506,83.847116 C21.1610765,82.663116 18.6067062,83.2085235 16.8371012,84.6739062 C15.2081877,86.0196099 14.1356444,88.1948444 13.9383111,91.0954617 C13.8707062,92.0976593 13.9182123,93.1747704 14.0716938,94.2875111 C14.2315704,95.7967457 14.7294716,98.1391654 15.4429778,100.11524 C17.3167309,105.309857 20.511521,108.818919 24.4654963,111.921437 C26.6498667,113.6344 28.7227802,115.089733 34.6966815,118.446227 C34.7597185,118.480943 34.8245827,118.517486 34.8894469,118.554943 C34.8931012,118.55677 34.8976691,118.559511 34.902237,118.562252 C34.9068049,118.564993 34.9104593,118.56682 34.9150272,118.56956 C34.9808049,118.60519 35.0447556,118.641733 35.1077926,118.676449 C41.0816938,122.032943 43.1546074,122.906326 45.3389778,123.646326 C49.2938667,124.987462 52.4877432,125.066943 54.3614963,121.977215 C55.0750025,120.803264 55.5738173,119.020869 55.7327802,117.690696 C55.8853481,116.749709 55.9337679,115.727412 55.8652494,114.64756" id="Fill-145" fill="#FFFFFF"></path>
                        <path d="M55.8652494,114.64756 C55.6688296,111.525857 54.5962864,108.146523 52.9682864,104.970005 C51.1968543,101.515758 48.6433975,98.1026222 45.9273235,96.2343506 C45.3974469,90.2239062 42.2017432,83.431437 37.5854222,79.2499802 C36.6992494,78.445116 35.8021136,77.7782025 34.9150272,77.2410173 L34.9150272,77.2382765 C34.9104593,77.2364494 34.9068049,77.2346222 34.902237,77.2318815 C34.8976691,77.2300543 34.8931012,77.2264 34.8894469,77.2236593 L34.8894469,77.2264 C34.0014469,76.7659556 33.1061383,76.4270173 32.2190519,76.2351654 C27.6027309,75.2302272 24.4061136,78.4314123 23.8771506,83.847116 C21.1610765,82.663116 18.6067062,83.2085235 16.8371012,84.6739062 C15.2081877,86.0196099 14.1356444,88.1948444 13.9383111,91.0954617 C13.8707062,92.0976593 13.9182123,93.1747704 14.0716938,94.2875111 C14.2315704,95.7967457 14.7294716,98.1391654 15.4429778,100.11524 C17.3167309,105.309857 20.511521,108.818919 24.4654963,111.921437 C26.6498667,113.6344 28.7227802,115.089733 34.6966815,118.446227 C34.7597185,118.480943 34.8245827,118.517486 34.8894469,118.554943 C34.8931012,118.55677 34.8976691,118.559511 34.902237,118.562252 C34.9068049,118.564993 34.9104593,118.56682 34.9150272,118.56956 C34.9808049,118.60519 35.0447556,118.641733 35.1077926,118.676449 C41.0816938,122.032943 43.1546074,122.906326 45.3389778,123.646326 C49.2938667,124.987462 52.4877432,125.066943 54.3614963,121.977215 C55.0750025,120.803264 55.5738173,119.020869 55.7327802,117.690696 C55.8853481,116.749709 55.9337679,115.727412 55.8652494,114.64756 Z" id="Stroke-147" stroke="#3281EE" stroke-width="3" stroke-linecap="round" stroke-linejoin="round"></path>
                        <path d="M42.258842,107.668995 C41.8267185,107.018526 41.3196815,105.914007 41.3370395,105.518427 C41.3562247,105.110057 41.2173605,104.66697 40.9560765,104.300625 C40.6783481,103.912353 40.3010395,103.677563 39.9940765,103.70223 C39.6980765,103.726896 39.509879,103.992748 39.4906938,104.412995 C39.4642,104.988551 39.6030642,105.571415 39.8040519,106.137835 C36.789237,106.477686 32.7786198,104.147143 29.9309901,100.367662 C30.1127926,99.9803037 30.2096321,99.4741802 30.1465951,98.7990444 C30.0753358,98.0270691 29.5399778,97.3537605 29.0850148,97.1710444 C28.6090395,96.9801062 28.3066444,97.3080815 28.3660272,97.951242 C28.4354593,98.6930691 27.976842,98.9324272 27.3702247,99.1681309 C27.1034593,99.2731926 26.9673358,99.5993407 27.0057062,100.042427 C27.0440765,100.490081 27.2551136,100.986156 27.5428914,101.306822 C27.6442988,101.420106 27.7502741,101.506896 27.8553358,101.566279 C28.0298296,101.664946 28.2043235,101.686872 28.3596321,101.626575 C28.5067185,101.568106 28.6812123,101.500501 28.8621012,101.409143 C30.6609407,103.818254 32.8407432,105.746822 35.0260272,106.97376 C37.0633111,108.118477 39.1024222,108.652007 40.8345704,108.398032 C40.9588173,108.620946 41.0931136,108.844773 41.2411136,109.067686 C41.4046444,109.315267 41.5855333,109.491588 41.7636815,109.591168 C42.0213111,109.736427 42.2716321,109.717242 42.4479531,109.511686 C42.7339037,109.175489 42.7412123,108.396205 42.258842,107.668995" id="Fill-149" fill="#3281EE"></path>
                        <g id="Group-153" transform="translate(99.580247, 93.185185)">
                            <mask id="mask-4" fill="white">
                                <use xlink:href="#path-3"></use>
                            </mask>
                            <g id="Clip-152"></g>
                            <path d="M0.208661728,24.9676914 C0.208661728,11.3178889 11.2739457,0.252604938 24.9228346,0.252604938 C38.572637,0.252604938 49.637921,11.3178889 49.637921,24.9676914 C49.637921,38.6165802 38.572637,49.6818642 24.9228346,49.6818642 C11.2739457,49.6818642 0.208661728,38.6165802 0.208661728,24.9676914" id="Fill-151" fill="#CBF7D8" mask="url(#mask-4)"></path>
                        </g>
                        <path d="M112.209672,109.698696 C112.209672,108.850894 112.89303,108.163881 113.747227,108.163881 L135.259301,108.163881 C136.108931,108.163881 136.79777,108.843585 136.79777,109.698696 L136.79777,112.773807 L124.503721,117.383733 L112.209672,112.773807 L112.209672,109.698696 Z M112.209672,115.847091 L124.503721,120.457017 L136.79777,115.847091 L136.79777,126.60998 C136.79777,127.455956 136.114412,128.141141 135.259301,128.141141 L113.747227,128.141141 C112.897598,128.141141 112.209672,127.445906 112.209672,126.60998 L112.209672,115.847091 Z" id="Fill-154" fill="#35CE68"></path>
                    </g>
                </g>
            </g>
        </g>
    </g>
</svg>