<svg xmlns="http://www.w3.org/2000/svg" viewBox="0 0 64 80"><defs><style>.cls-1{fill:#906cea;}.cls-2{fill:#c9b8f4;}.cls-3{fill:#fedba7;stroke:#906cea;stroke-width:4px;}.cls-3,.cls-4{stroke-miterlimit:10;}.cls-4{fill:none;stroke:#bbd9fd;stroke-width:2px;}.cls-5{fill:#288afc;}.cls-6{fill:#bbd9fd;}</style></defs><title>niv_secu_point</title><g id="Calque_2" data-name="Calque 2"><path class="cls-1" d="M12.3,21.64h0c-13,4.76-9,17.58-7.76,21.08a2.91,2.91,0,1,0,5.47-2C9.7,40,6.32,30,14.27,27.11S26.05,34,26.33,34.79a2.91,2.91,0,1,0,5.46-2C30.52,29.3,25.34,16.91,12.3,21.64Z"/><path id="Fill-8" class="cls-2" d="M40.48,40.7c-1-2.1-2.56-4.93-2.56-4.93a5.45,5.45,0,0,0-6.15-2.67L5.28,42.74a5.45,5.45,0,0,0-3,6s.65,3.15,1.22,5.42c1,4.09,1.76,7.73,3.45,10.28,4.59,6.9,14.42,9.37,23.45,6.1s15-11.5,14-19.74C44.09,47.76,42.33,44.49,40.48,40.7Z"/><path class="cls-1" d="M7.49,49.23a2.48,2.48,0,0,0,1.37,1,2.35,2.35,0,0,0,2.74-1.61,2.29,2.29,0,0,0-1.87-3,2.33,2.33,0,0,0-2.61,2.52A2.29,2.29,0,0,0,7.49,49.23Z"/><path class="cls-1" d="M9.93,62.38a2.51,2.51,0,0,0,1.38,1,2.37,2.37,0,0,0,2.74-1.61,2.3,2.3,0,1,0-4.48-.46A2.28,2.28,0,0,0,9.93,62.38Z"/><path class="cls-1" d="M26.75,67.05a2.38,2.38,0,0,0,1.38,1,2.35,2.35,0,0,0,2.74-1.61,2.3,2.3,0,0,0-1.88-3A2.33,2.33,0,0,0,26.39,66,2.21,2.21,0,0,0,26.75,67.05Z"/><path class="cls-1" d="M36.53,52.88a2.48,2.48,0,0,0,1.37,1,2.36,2.36,0,0,0,2.74-1.61,2.3,2.3,0,0,0-1.87-3,2.34,2.34,0,0,0-2.61,2.52A2.29,2.29,0,0,0,36.53,52.88Z"/><path class="cls-1" d="M30,41.24a2.3,2.3,0,0,0,4.11-.65,2.3,2.3,0,1,0-4.48-.46A2.23,2.23,0,0,0,30,41.24Z"/><path class="cls-3" d="M23.4,43.71c-3.48-.61-6.36,2.55-6.15,5.94a5.34,5.34,0,0,0,.87,2.6,5.77,5.77,0,0,0,3.23,2.27c.39,1.15.85,2.48,1.44,4.1,1.36,3.7,7.18,1.75,5.82-2-.64-1.73-1.12-3.13-1.53-4.34a4.63,4.63,0,0,0,.74-1.57C28.5,48,27.48,44.42,23.4,43.71Z"/><path class="cls-4" d="M58.51,15.52a19.17,19.17,0,0,1-3.31,2.72,16.18,16.18,0,0,1-4.78,1.62c-3.22.66-6.51.2-9.75-.11L40,19.69a.49.49,0,0,0-.25,0,6.18,6.18,0,0,0-.68.54C37.63,21.4,35.91,22.4,34,22c-1.14-.26-.13-1.44.17-2a4.05,4.05,0,0,0,.33-1.54.54.54,0,0,0-.29-.46c-.1-.05-.63-.25-1.23-.45-1.66-.55-3.54-2.27-3.4-4a.46.46,0,0,0-.92-.07c-.19,2.49,2.52,4.76,4.78,5.15h0a3.55,3.55,0,0,1-.57,1.67,2.19,2.19,0,0,0-.4,1.09,1.34,1.34,0,0,0,.89,1.4c2.31.79,4.41-.45,6.23-1.77.14-.1.3-.2.49-.35.18,0,.66.08.88.1a35.33,35.33,0,0,0,9.58.06,19.2,19.2,0,0,0,4.55-1.47,16.62,16.62,0,0,0,4-3.08C59.55,15.82,59,15.12,58.51,15.52Z"/><path class="cls-5" d="M38.77,12q0,.66-.6.66-1,0-2.55-2.37-2.05,2.37-2.76,2.37a1.27,1.27,0,0,1-.92-.47,1.34,1.34,0,0,1-.45-.84c0-.06.13-.21.38-.45a26.85,26.85,0,0,0,2.5-2.68,29.87,29.87,0,0,1-1.31-2.69A6.66,6.66,0,0,1,32.52,4a2.51,2.51,0,0,1,0-.37.29.29,0,0,1,.32-.24,4.74,4.74,0,0,1,1.6.3c.55.2.83.43.83.69a5,5,0,0,0,.54,1.84A16,16,0,0,1,37.62,4a1.9,1.9,0,0,1,1.14-.64,1.54,1.54,0,0,1,1,.52,1.46,1.46,0,0,1,.55.93.55.55,0,0,1-.17.38,3.77,3.77,0,0,1-.48.43,5.21,5.21,0,0,0-.62.54c-.2.21-.86,1-2,2.36l.52.92A8.87,8.87,0,0,1,38.77,12Z"/><path class="cls-5" d="M48.65,12q0,.66-.6.66c-.64,0-1.5-.79-2.55-2.37q-2.05,2.37-2.76,2.37a1.27,1.27,0,0,1-.92-.47,1.32,1.32,0,0,1-.44-.84c0-.06.12-.21.37-.45A28.3,28.3,0,0,0,44.26,8.2a27.6,27.6,0,0,1-1.32-2.69A6.66,6.66,0,0,1,42.4,4a2.51,2.51,0,0,1,0-.37.29.29,0,0,1,.32-.24,4.74,4.74,0,0,1,1.6.3c.55.2.83.43.83.69a5,5,0,0,0,.54,1.84A16.82,16.82,0,0,1,47.5,4a1.93,1.93,0,0,1,1.14-.64,1.54,1.54,0,0,1,1,.52,1.41,1.41,0,0,1,.55.93.59.59,0,0,1-.16.38,4,4,0,0,1-.49.43,5.21,5.21,0,0,0-.62.54c-.2.21-.86,1-2,2.36l.52.92A8.87,8.87,0,0,1,48.65,12Z"/><path class="cls-5" d="M58.53,12c0,.44-.2.66-.59.66-.65,0-1.5-.79-2.56-2.37-1.37,1.58-2.29,2.37-2.75,2.37a1.28,1.28,0,0,1-.93-.47,1.32,1.32,0,0,1-.44-.84c0-.06.12-.21.38-.45a28.09,28.09,0,0,0,2.5-2.68,27.6,27.6,0,0,1-1.32-2.69A6.66,6.66,0,0,1,52.28,4a2.51,2.51,0,0,1,0-.37.3.3,0,0,1,.33-.24,4.73,4.73,0,0,1,1.59.3q.84.3.84.69a5,5,0,0,0,.54,1.84A15.32,15.32,0,0,1,57.39,4a1.91,1.91,0,0,1,1.13-.64,1.54,1.54,0,0,1,1,.52,1.41,1.41,0,0,1,.55.93.54.54,0,0,1-.16.38,4,4,0,0,1-.49.43,6.14,6.14,0,0,0-.62.54c-.2.21-.85,1-2,2.36l.52.92A8.87,8.87,0,0,1,58.53,12Z"/><path class="cls-6" d="M8,76.88A43.2,43.2,0,0,0,16.36,78c8.41.49,20.16.22,25.14-.69s5.25-2.29-7.51-3c-10.87-.58-23.55.25-26.26,1.49C7,76.19,7,76.56,8,76.88Z"/></g></svg>